<svg version="1.2" xmlns="http://www.w3.org/2000/svg" viewBox="0 0 92 121" width="92" height="121">
	<style>
		.s0 { fill: #000000 } 
	</style>
	<path id="1" class="s0" aria-label="1"  d="m37 12.9l-0.8 1q-0.8-1.5-0.8-2.4 0-0.5 0.6-0.5 1 0 1 1.9zm45.7 81.7l0.1 5.4q0 2.3-0.3 6-0.4 4.8-0.5 6.1-0.8 0.1-7.5 0.8-4.6 0.5-7.6 0.5-3 0-3.3-0.1-1.3-0.3-1.3-2.2 0-0.5-1.3-0.5l-0.8 2.2h-8q0.1-0.7 0.8-2.2 0.3-0.3 1.6-0.4 1.4-0.1 1.4-0.7 0-0.7-0.9-1.8 3.4-1.5 5.1-2.2v3.7h2.2q-0.7-4.2-0.7-5.4 0-2.2 0.7-4.1 1.3-0.7 1.4-1.5h-2.1q-2.7 1.2-3.7 7.3l-2-0.1q-1.6-0.1-1.6 2.3l-2.2-1.5 0.8-2.1q0.2-0.1 2.2-0.5 1.7-0.2 1.7-0.7 0-0.4-1.8-1-1.4 0-1.6 0.4 1.1 0 1.3 0.4-0.9 0.9-2.3 0.9-0.4-0.3-1.7-0.3 0 0 0 1.1 0 0.3-0.8 0.4 1 2.4 2.2 7.3-2.9 0.4-4.3 0.4-1.9 0-5.1-2.6 0.5-2.4 1.4-4.4h-2.9l-0.1-0.2q0-0.3 0.4-0.7 0.4-0.4 0.4-0.8v-0.5l-2.2-2.1q0.2 0.3 0.2-3.1l-0.2-0.6h-2.1q0.7 9.2 0.7 8-0.5 0.2-1 0.3-0.2 0.1-0.5 1.2h1.5q0.4 1.4 1.4 4.3-1.9-0.2-2.9-1.4l-1.4 2.2q-2.7 0.8-7.5 0.8-1.4 0-12.2-0.8v-1.5h2.2q0.5-0.9 1.2-2.9 0.6-2 1-2.9h-1.5q-0.5 0.9-1.4 2.9-1 2-1.5 2.9-2.7-0.6-2.7-1 0-0.1 0.5-0.4h-2.1l-0.1-4.1 0.1-9q4.7-0.6 13.1-0.9 9.2-0.3 13.1-0.6v-2.9h-1.5q0.6 1.9 0.6 2.1 0 0.2-0.1 0.3-0.3 0-0.4-0.2-0.1-0.2-0.5-1.1-0.4-0.9-0.4-1.4l0.1-0.4 1.4-1.5v-0.7q0.1-1.4-0.8-4-1.2-3.4-1.3-4l1.7 0.1 1.9-0.1-2.9-2.2v-8.8q1.4-0.5 1.4-1.4l-1.4-1.5q-0.2-0.6-0.2-1.8 0-0.9 0.1-2.3 0.1-1.6 0.1-2.3 0.7-0.2 3.6 0v-2.2q-1.2-0.4-3.6 0v-0.7q0-17 0.7-17.5l-0.7-1.5q-0.3-0.2-0.3-0.5 0-0.6 1-1.6l-0.7-2.2q0.8-0.5 2.2-0.7l-2.2-0.8q0.1-1.4 0.1-4.4l-0.1-2.1q-9.3-1.2-13.3-1.2-3.2 0-5.6 0.4v-0.2q0-0.2 0.5-0.6 0.5-0.5 0.5-0.9 0-0.3-1.2-1.1-1-0.8-1-1 0.2 0 0.2-0.7 0-0.4-0.5-2 0.6-0.6 0.6-0.6-0.1-0.1-0.5-0.1h-1.6v1.4h-0.7l0.7 5.1-0.5-0.1q-0.4 0-2.4 0.8 0.2-0.8-0.3-2.1-0.4-1.5-0.4-2 0-2.3 0.6-6.5 0.8-4.2 0.9-6.1 0.9 0 2.7-0.1 1.8-0.1 2.7-0.1 1.7 0 2.5 0.3 0.7 0.3 1.3 1.4-0.3 0.3-1.2 0l-0.8 1.4q1.1 1.4 2.9 4.4-0.6-0.2-0.9-0.2-0.4 0-0.4 0.2 0 0.5 1.3 1.4 1.6-0.4 1.6-1.6 0-1.2-0.8-2.5-1.4-2.2-1.5-2.4 0-1.2 0.4-1.2 0.2 0.1 0.3 0.5v-0.8q3.3-0.4 7.3-0.4 3.7 0 6.6 0.4 0 1.9-2.2 1.5v2.2q0.5 0 0.6 0.3 0.1 0.2 0.1 0.6-0.1 0.6-0.1 0.7l0.1 0.6q3.1-0.7 3.5-0.7 0.2 0 1.6 5h1.5l1.4-2.2q-0.9-0.7-2.9-2.1l0.7-1.5v-4.4q7.7-0.2 11.7-0.2 4.8 0 7.3 0.2 0 4.8 0.3 14.5 0.4 9.6 0.4 14.3 0 4.2-2.2 4.2-0.6 0-1.9-0.1-1.2-0.1-1.7-0.1l-0.7-2.2q0.2 0.1-1.7 0.1-0.3 0-0.5-0.1v-2.9l-0.2-0.1q-0.2 0-1.1 0.5-0.7 0.4-1.2 0.4-1.3 0-2.1-1.5-0.7-1.7-0.5-2.9h-1.5q0.3 0.1 0.3 0.3 0 0.4-1.7 0.4l-0.8-2.2h-0.4q-0.7 0-1 1.5h-0.3q-0.2 0-0.8-0.5-0.5-0.4-1.1-0.3v2.2q1.7 0.2 3.3 0.5 2.6 0.5 2.6 1.5-1 0.7-1 1.2 0 0.3 0.2 0.4h-0.7q0.7 1.3 0.7 1.5 0.7-0.2 2.2-0.7 1.4-0.5 2.2-0.8 0.1 1 0.7 3 0.6 1 5 1.8 5.9 1.1 5.9 1.1l-0.1 1.2 0.1 3.9q-3.1-1.6-4.3-1.6-0.6 0-1.3 1-0.6 1.1-0.9 1.3 0.4 0.1 1.3 0.9 0.9 0.8 1.6 0.8 1.1-0.6 3.6-1 0 0.9 0.1 2.6 0.1 1.8 0.1 2.7 0 0.8-0.1 2.4-0.1 1.6-0.1 2.4-1.1 0.2-3.4 0.2-1.5 0-5-0.6-3.1-0.6-4.9-0.4l-2 0.2q1.9 1.2 5.8 3.5l-1.4 2.2q-0.2 0.1 1.8 0.1 0.7 0 1.2-1.2 0.3-0.9 0.6-1.8 2.4 0.2 7.3 0.7-0.2 2.7-0.7 8h-2.2q0.3 0.3 0.9 0.9 0.1-0.2 0.7-0.2l0.6 0.1v2.9q-1.8 0-5.1 0.7l-0.7 2.2q-1.2 0.1-3.7 0.7 0.6 1.8 2.2 5.1h2.2q-0.5 1.5-1.1 2.9-0.8 1.7-2.1 1.7-1.3 0-4.1-1v1.5l6.6 1.5q-0.8 0.5-3 1.4v1.5q1-1 1.6-1 0.3 0 0.3 0.6 0 0.9-0.9 2.8-0.9 1.8-1.7 2.7 0.1-0.2 0.5-0.2 0.2 0 0.2 3.1 0 0 1 0-0.2 0 0.5 0.7 3.6-3.1 5.1-5.8-2.9-0.3-2.9-1.6 0-0.2 0.7-0.6 1.2 0 1.2-0.2 0-0.3-1.3-1-1.2-0.8-1.3-1.2 1.4 0.3 4.3 0.9l0.7-1.4q-0.6 0.3-1.3 0.3-0.6 0-0.6-0.3 0-0.6 0.6-1.4 0.7-0.7 1.3-0.8h-2.1q-0.3-2.2-0.8-6.5l2.2-0.8q0.2-0.9 0-2.9h1.5q0 9.1 0.7 16.8 10.8-1.5 23.2-1.5zm-69.2 16.3l-0.6 1.2q-1.7-0.4-1.7-1 0.5-0.6 1.6-0.6 0.7 0 0.7 0.4zm30.7-84.8v-4.2q-1.1-0.3-2.9-1.5 0 0 0 4.4 0.3 0.1 1.5 1.1 1.2 0.8 1.3 0.8 0.1-0.2 0.1-0.6zm2.1 4.5q-0.7-1.2-2.1-1.4v2.2h0.7q1.4 0.3 1.4-0.8zm11 24.8q-0.6-0.8-2.2-2.2v3.6q0 0 1.1 0 0.4 0 0.4-0.7 0.1 0.3 0.3 0.3 0.1 0 0.2-0.5 0.2-0.5 0.2-0.5zm-35.3-33.9q0-1.1-1.8-1.1-0.5 0-0.5 0.3 0 0.8 1.9 1.9 0.4-0.5 0.4-1.1zm30 31.9q0-0.4-0.5-0.9l-2.2-0.7q0.1 0.7 0.7 2.9l-0.3-0.1q-0.5 0-0.5 0.3 0 1.7 0.1 1.2l2.2-0.7-0.1-0.3q0-0.3 0.3-0.9 0.3-0.5 0.3-0.8zm-3.1 5.7l0.1-0.1q0-0.3-1.1-1.4l0.7 1.4zm-4 0.7l0.1-0.6q0-1-1.7-1-1 0-1.1 0.2 0 0 2.7 1.4zm-1.3 0.8q0-0.3-0.3-0.3l-0.6 0.2q-1.1 0.4-1.1 1.4 0.1 0.1 0.4 0.1l0.7-0.2q0.9-1.2 0.9-1.2zm13.4 13.7q-0.1-0.2-0.5-0.2l-0.6 0.1q-1.3 0.9-1.3 1.5 0.1 0.1 0.5 0.1l0.8-0.1q1.1-0.8 1.1-1.4zm-20.1-12.5l0.8 1.5q0 0 0-1.2 0-0.3-0.8-0.3zm10.9 11.7l0.8 1.4q0 0 0-1.1 0-0.3-0.8-0.3zm-8.2-6.2q-0.8-0.9-1.9-1.1v1.5l0.9 0.1q1 0 1-0.5zm11.2 9.1q-0.4-0.1-0.4-0.8 0.1-0.8-0.4-0.8-0.1 0-0.3 0-0.3 0.1-0.4 0.1v1.5q-0.7 0.3-3.6 0l-0.1 1.1q0 1.5 0.8 1.1-0.1 0-0.3 0.2 0 0.5 2.5 0.5l-0.8-2.2q1.1-0.1 3-0.7zm-6-5.6q-2.2-0.9-7.1-1.7 0.5 0.5 0.6 1.7 0.1 1 0.1 2 6.4-1.1 6.4-2zm22.6 26.7l2.2 1.5v-1.5q-0.4-0.1-1-0.1zm-22.4-18.2q-0.2-0.1-0.2-1.1 0-0.4-0.7-0.4-1.4 0.2-1.4 0.5 0 0.6 2.3 1zm21.9 21.7q-0.1-0.7-1-0.7-2 0-2 2 0.5 1.2 1.9 1h0.2q0.9-1.1 0.9-2.3zm2 3.4q-0.3-0.4-0.9-0.4-0.9 0-0.9 0.4 0 0.1 1.1 1.1 0.7-0.7 0.7-1.1zm-24.6-21.5q-0.2 0-1-1.2-0.7-0.8-2.7-0.9l-0.7 2.1 2.9-1.4-0.1 0.3q0 1.4 1.6 1.1zm21 23.3q-0.2-0.1-0.2-1.1 0-0.4-0.6-0.4-1.4 0-1.4 0.4 0 0.6 2.2 1.1zm-19.1-19.5q-0.5-0.9-1.9-1.6-0.6 1.3-0.6 2.4l0.6 1.3q1.9-1.6 1.9-2.1zm-22 13.4h-0.1q-0.9 0-2.4 1 0.2 0 0.3 0.1 0 0.7-1.8 0.7l0.8 2.2q3.2-3.3 3.2-4z"/>
</svg>