<svg version="1.2" xmlns="http://www.w3.org/2000/svg" viewBox="0 0 749 354" width="200" height="95">
	<style>
		.s0 { fill: #000000 } 
	</style>
	<path id="DT211G LAB  1" class="s0" aria-label="DT211G
LAB  1"  d="m133 53.5l-2.4 1.3q-3-2.3-3-3 0-0.3 0.5-0.3 4.9 0 4.9 2zm-0.2 4.2q0 0.4-0.7 0.4l-0.3-0.1q-2.2-1.5-2.2-2 0-0.3 0.5-0.3 2.7 0 2.7 2zm3 51q0 14.5-7.3 27.6-1.8-1.6-3-1.6-0.6 0-1.4 0.5 1.8 3 1.8 3.5-0.4 0.1-0.7-0.2v2.1q-2.3 0-6.5 1.1-0.7 0.2-2.3 3.2-1.4 2.4-3.5 2.4-1.8 0-1.8-2.4l1.3 0.2q1.1 0 1.1-0.4 0-1.9-4.6-1.9l-1.1 4.4q0.8-0.5 1.5-0.5 0.4 0 0.4 0.4 0 1.1-5.2 2.2-3.9 0.8-8.7 2.3v1h-0.4q-0.8 0.1-2.3-0.4-1.4-0.8-2.1-0.8l-0.6 0.2v2.1l1.2-0.2h0.1q0 0-2.3 1.2-0.8-0.6-0.5-1.2 0.3-1.3 0.3-1.3 0-0.6-2.1-0.6l-1 2.1q0.5 0 0.5-0.4 0-0.7-2.7-0.7l2.2 2.1q-3.7 0-7.2 0-5.2-0.1-7-1 0 0-0.1-0.2 0-0.2 0.4-0.2 0.7-0.1 1.7-0.2 1.2-0.4 1.2-0.7 0-0.6-1.2-1.3-1.2-0.8-2-0.8v-1h2.2q4.6 0 10.9 1l1.1-2.1q-1.5-0.3-3.4-0.9 5.2-0.1 15.4-0.1v-3.3q-0.7-0.3-1.1-0.3-0.1 0 0.1 1.1 0 0.4-0.4 0.4l-0.9-0.2-3.2-3.2h-1q-1.7 0-4.5 1.1-2.9 1.1-4.2 1.1 0.3 0-6.5-1.5-2-0.6-2.2-0.7-1.3 0-3.9 0.2-2.4 0.2-3.6 0.2-1.8 0-3.5-0.4l-2.1-3.2-1-0.2q-3.9 0-4.2 1.1 0.3 0.2 2 0.2v2.1q-1 0.2-1.5 0.2 0.2 0-5.2-1.3v2.2q-1.5 0-2.1-1-0.5-1.2-2.2-1.2-0.2 0.6-2.1 2.2l1.1 3.2-3.3 1.2q-0.4-0.1 0-1.4 0.4-1.5 0.4-1.6 0-3.6-26.6-2.5 0.5-3.2 1.2-9.8-1 0.4-2.2 0.4-0.9-0.4-3.3-0.4 1.5 5.5 1.5 5.1-0.6 1.5-2.5 2.6 0.4-5.6 0.4-11.4 0-8-0.8-24.2-0.7-16.2-0.7-24.3 0.1 0 2.2-0.3 1.4-0.2 1.4-0.9-0.3-0.2-1-0.4l-2.6-0.5v-12q1.2-0.4 1.8-0.1 1.2 0.2 1.3 0.2 0.6 0 2.1-1.1 1.7-1.4 1.7-2 0-1.2-2.5-2.4 1-0.7 3.2-1v-3.3q1.8-0.9 4.5-0.9 2.5 0 4.8 0l2.6-0.2-2.1-2.3q-1-0.3-3.3-0.3-2.2 0-6.9 0.8-4.5 0.6-6.9 0.6h-0.3v-4.4h3.3q-0.3-0.8-2.5-0.8l-0.8-0.2v-34.8q-0.3 0.1 3.6 0.1l0.8-0.1 1-2.1 2.1-0.3-6.4 0.3q-1.1-1.4-1.1-2.4l1.1-0.9q3.8-0.4 7.6-0.4 5.1 0 15.2 0.7 10.2 0.8 15.2 0.8 7.3 0 21.5-0.4 14.4-0.4 21.5-0.4 3.5 0 6 0.8l1 2.2q1 0.3 3.3 0.4 2.2 0.2 3.3 0.7v3.3q1.2 0.4 3 0.1 2.6-0.4 3-0.4 2.4 0 2.7 3.4 1.5 0.6 4.4 2.2-0.8 0.7-0.9 2.6-0.2 1.3-0.3 2.8 0 0-2.2 0.2-1.9 0.1-1.9 0.4 0.4 0.8 1.9 1.7l1.1 3.2 3.3-1.1q0.3-0.3 1.1-3.3h2.2q1.8 1.8 4.3 5.5v3.2h2.2q0.4 1.3 0.1 3.2l-0.1 6.7h-2.2q-1.1-3.6-3.3-10.9-0.7-0.2-6.5-2.2v4.4l2.8-0.3 1.5 0.3q0.5 0.1 0.5 1.5 0 1.2 0.7 1.6l-1.2 4.4q-7.2-1.2-8.7-1.2-0.8-0.2-0.8 0.3 0 0.7 4.9 1.8 2.8 0.7 5.8 1.4l1 2q-0.8-0.4-1-0.4-1.2 0-1.2 2.4v0.3q1.8 0.4 4.4 2.1l-0.2 2.3 0.2 1 4.3 3.3q-1 0.3-4.3 0 0 3.2-1.1 9.7 0.6-0.2 1.5-0.1 1.2 0.3 1.4 0.3 0.8 0 2-1.8 1-1.4 1.7-2.7 0.5 5.4 1 16.3-1.3-0.8-5.4-2.2l-1.1 4.4h1.1v2.2q2.7-0.5 2.7-0.9-0.1-0.2-0.5-0.3h2.2l1-3.2q0.2 4.3 1.7 13.4 1.3 8.5 1.3 13.3zm-68.5 40.4q-0.6 1.3-1.8 1.3-0.9-2.6-0.9-2.8 0-0.4 0.5-0.4 2.2 0 2.2 1.9zm0.3 6.9q-0.9 0-1.2 0.2-0.1 0.1 0 0.4 0.2 0.6 0.2 0.9v0.6q-7-0.6-20.7-3.3l-2.1 3.3q-1.9-0.9-1.9-1.7 0.2-0.2 0.7-0.4-0.7-0.5-2.2-1.2 1-1.8 3.4-5.4 0.8 0.1 6 1.4 3.6 0.9 5.8 0.9 2.3 0 4.3-1.3 3.8 1.1 7.7 5.6zm-47-9.7q-0.7 2-2.7 2-4.3 0-4.3-2.5 1-2 3.8-2 3.2 0 3.2 2.5zm10.1 11.8q-1.5 0-4.5 0.3-3 0.1-4.3 0.1-5.8 0-7.3-2.1-0.4-0.9-1.3-7h1.1q3.5 0 14 1 0 0 2.3 7.7zm72.3-137.1q-1.8-0.9-4.9-0.9l1 2.1q3.9 0 3.9-1.2zm-8.7-0.5l-1.7-0.4v-3.3h-2.2l-2.1 2.1q2.1 0.7 6 1.6zm23.3 31.1h2.2q-0.4-0.3-0.4-1.7 0-0.6-1.8-0.6zm-31.4-29.8q0-2.3-3.3-3.9l1 4.3q1.4 0.5 1.5 0.5 0.8 0 0.8-0.9zm28.4 30.9q0-0.6-1.4-1.1v-2.2h-3.1v2.2q0.5 0 1.9 0.6 1.4 0.6 2.1 0.6 0.3 0 0.5-0.1zm-19.1-21.2q0-1.9-4.1-6h-6.4q0.6 1.2 2.1 6.5h0.9q0.6-0.2 1.6 0.6 1.1 0.7 1.7 0.7l1.3-0.1v-2.3q1.4 1.1 2.5 1.1 0.4 0 0.4-0.5zm-10.5-1.6l-2.1-3.3h-13l2 3.3h0.7q1.5 0 1.6-1.1 1.4-0.4 3-0.4 1.5 0 4.1 0.7 2.6 0.6 3.7 0.8zm40.2 43.5h2.2q-2.3-0.8-5.5-1.1v-2.2q-2.7-0.8-7.5-1.2-5.4-0.3-7.6-0.9-0.2-0.8-0.2-2.1 0-0.3-0.9-1.2l-1.2 2.1 4.4 5.5q0.5 0.3 1.7 0 1.4-0.3 1.7-0.3 0.6 0 0.9 0.3-0.1 2.9 2.1 4.5 2.3 1.5 4.5 3 0.1-2.5 0.6-2.8 0.5-0.3 2.9-0.3 0.8 0 0.8 0zm-19-11.3q0-0.8-0.9-2.3-0.9-1.7-1.8-1.7h-1.1l1.1 4.3q1.5 0.8 1.8 0.8 0.9 0 0.9-1.1zm-42.2-42.3q0-1.2-8.3-6.2 0.4 0.1 0.4 0.7 0 0.9-1.5 3.6 0 0 5.4 0v2.2q1.8 0.3 2.7 0.3 1.3 0 1.3-0.5zm5.9 11q-3.7-0.7-3.7-2.2 0-0.8 0.4-3.1l-2.2 0.1q-0.7 0-1.1-0.1v-2.3q-1.9-0.3-3.3-1 1 2.5 3.3 7.6h3.3v2.1l0.6 0.1q1.2 0 2.7-1.2zm62.7 67q-1.2-1.4-3-1.7v2.1l1.5 0.1q1.5 0 1.5-0.5zm-83.4-84.3q-2.3-0.8-7.7-3.3v0.7q0 3 3.8 3 1.9 0 3.9-0.4zm2.1 4.3q-1.1-1.1-3.1-1.1v2.1q3.1 0 3.1-1zm8.7 15.3q-2.1-2.4-4.3-4.8-2.8-2.9-5.5-2.9-3 0-3 2.9 0.7 1.8 3 1.5v2.1q0.7 0.3 1.1 0.3 0.7 0 1.8-0.6 1.1-0.8 1.5-0.8 3.6 1.9 5.4 2.3zm-14.6-14.3q0-1-4.9-1-1.6 1.4-2 2.2 0.4 0.2 0.8 0.2 2.4 0 2.4-0.9l-2.1-0.1q0.9-0.2 5.1-0.2 0.5 0 0.7-0.2zm2.8 3.4q-1.8-0.2-5.6-1.1 2.7 3.4 4.6 3.4 0.3 0 1-2.3zm84.7 86.9q-2.3-2.2-3.3-2.2l-1.1 2.2 2.1 1.1q-0.6-0.2-0.6-0.3 0-0.8 2.9-0.8zm-3.3-4.3q-2.6-1.1-7.7-3.3l4.4 5.4q0.9 0.3 1.2 0.3 0.7 0 1.2-1.1 0.6-1.2 0.9-1.3zm-18.3-14.9q0-0.1-0.6-0.3-0.6-0.1-0.6-0.1-6.6-0.9-9.9-1.1l0.3 0.2q0 0.3-2.4 2.1l1.1 2.1q0 0 7.6 0l-1.1-2.1q1.5-0.2 4.4-0.5 1.2-0.1 1.2-0.3zm-78.1-67.9q-0.8-1.7-3.7-2l1.2 3.2 1 0.1q1.5 0 1.5-1.3zm93.7 97.8q-0.3-0.9-2-0.9-1.5 0-1.5 0.4 0 0.3 2.9 1.8 0.6-0.9 0.6-1.3zm-99.9-97.2q0-0.9-5.1-4.6-3.3-2.3-6.5-4.5l1.1 5.3q0.6 0.5 1.8 0.4 1.9-0.4 1.8-0.4 0.9 0 2.4 2.2 1.7 1.9 4.2 1.9 0.3 0 0.3-0.3zm0.4 3.9h2.1q-0.3-0.2-0.3-1.5 0-0.6-1.8-0.6zm93 65.4l3.8-0.1q-2.7-2.4-8.7-6.7v-1q0.6 0.2 1-0.7 0.7-1.1 0.7-1.7-0.5-1.9-2.8-1.9v-3.2q-2.8 0.9-8.7 3.2 0-2-1.2-5.4v-3.4q0 0-6.4 0 0 0 0-5.4l-0.7 0.2q-0.8 0-0.5-0.6l1.2-2.9h0.9q0.6 0 1.4 0.7 0.7 0.6 1.1 0.6h0.9v-2.3q-0.4-0.1-5.4-1l-1.1-5.5q1.8-0.5 2.5-0.5 0.3 0-0.3 0.5h3.3q0.6 0.2 1.5 1.1 1 0.8 1.6 1.1l-1-3.3q-0.8-0.7-3-0.9-2.1-0.5-2.1-0.8 1.5-1.2 4-3.7l-2.5 0.1q-2.4 0.1-2.4-0.4 0.9-0.8 2.7-0.8l-0.2-3.7 0.2-1.7-4.3-1.2q-0.4 1.2-2.2 5.6 1.7 0.1 1.7 2.8 0 2-0.6 3.6-0.9-0.9-2.7-4.9-1.7-4.1-2.7-4.9-6.7-5-21.6-5.8-19.8-1-22.9-1.8 0.5 0.5 0.5 1.4l0.6 0.1 2.2 0.8q0.1 7 0.4 14.1 0.1 8.4 1.6 14 0 0-1.6 0-0.4 0-0.4 1.1h2v3.3l-2 1.1h2q0 1 0.2 3.3 0.3 2.2 0.3 3.4 0 0-0.5 3.2-2.3 1.1-2.3 1.9 0.1 0 0.3 0.2h2v47.8h3.3q14.4 0 20.7-2.3 2.5-1.7 7.5-4.3 1.5 0.3 2.3 0.3 0.4 0 1-0.3l5.4-6.4h2.3q1-1.7 1.3-5 0.4-3.4 0.8-4.8l2.2-1.2 0.2-1.3q0-2.3-0.8-6.6-0.5-4.4-0.5-6.5v-0.7l2.2-2.3q0.1-0.9 1.1-10.8 0.1 0.4 3.2 1.1v2.2l-0.2-0.1q-0.8 0-0.8 0.7 0 1.5 2.1 1.5-0.3-0.1-0.3-0.7 0-0.9 1.3-1.4 0.5 1.6 2.3 4.4 1.4 1.2 5.2 1.3 4.1 0 5.6 0.8l1.2 3.3q0.9 0.3 1.6 0.1zm0.2 27.6q-1.2-1.4-3-1.7v2.2l1.5 0.1q1.5 0 1.5-0.6zm-88.8-87.6q-0.6-0.4-2.3-3.2h-3.1q0.6 0.3 1.6 2.5 1.2 2 2.4 2 1.1 0 1.4-1.3zm1 8.7h2.3q-0.4-0.1-0.4-1.5 0-0.6-1.9-0.6zm12 5.6q0 0 0-6.6 0 0-1.6 0 0.5 0-0.6-1.1l-1.1-1 0.7 0.1q0.2-0.1 0.2-0.4 0-1.2-0.9-3-0.4-0.2-1.2-0.2l-2.1 0.2q0.5 1 1.1 3.6l-1.1 1.8q0 0 1.7 0 0.4 0 0.6 1-1.3 0.3-2.3 2.3-0.7 0.3-2.5 0.3-2.7 0-11.5-1.4 1.3 1.4 5.3 7.5 2-0.7 5.6-2.1l-1.2-2.2 1.6-0.2q2.4 0 5 2.3 2.7 2.2 3.3 2.2 0.6 0 0.6-0.6 0-0.1-0.2-0.7-0.1-0.8-0.1-0.9 0-0.8 0.7-0.9zm-19-7.8q-0.5-1.1-2-1.1-1.5 0.2-1.5 0.5 0 1 2.9 1.8 0.6-0.6 0.6-1.2zm79 80.7q0-1.3-3.4-1.3l3.1 2.2q0.3-0.2 0.3-0.9zm-82.6-81.2q-0.9-1.3-3.5-1.6l1.1 2.2 1.2 0.2q1.2 0 1.2-0.8zm95.4 98.4l0.3-0.8q0-1.5-2.6-1.5-1.5 0-1.8 0.4 0 0.8 4.1 1.9zm-69.6-66.6q0-0.8-5.4-4.1l2.2 5.4q3.2 0 3.2-1.3zm-5.1-6.3q0-1.2-2.3-2.4-2.1-1.2-3.4-1.2-0.8 0-2.3 0.3-1.3 0.1-2.1 0.1 2 1.2 3.8 2.4 1.9 1.2 5.2 1.2 1.1 0 1.1-0.4zm-21.2-13.4q-0.4-0.9-1.9-1.8v2.3l1.2 0.1q0.7 0 0.7-0.6zm84.3 96q-0.7-1.8-3.6-2.1l1.1 3.3h0.9q1.6 0 1.6-1.2zm-70.6-57.4l0.6-0.2q-0.8-0.5-4.2-2v2zm51.1 49.8q0-1-1.8-1-1.5 0-1.5 0.4 0 0.5 2.9 1.8 0.4-0.4 0.4-1.2zm-2.4-3.4q-1-1.2-4.5-2v-2.1l-1-0.1q-3.6 0-3.3 0.1 0 0 0 1.8 0 0.3-1.1 0.3-1.5-2.1-3.3-2.1 0.3 0.2 0.3 0.5 0 0.6-1.3 2.8 0.9 0 3 0.6 2.1 0.6 3.1 0.6l1.4-0.1q0.6-2.1 2.2-2.3 3.9 2 4.5 2zm-55.5-45.8q-0.4-0.7-1.5-0.7-1 0-2.5 1.5-1.4 1.3-1.5 2.4 0.4 0.6 1.3 0.6 1.4 0 2.7-1.2 1.5-1.2 1.5-2.6zm-6.9 4.5q-0.6-0.9-1.9-0.9l-1.1 2.3q3-0.8 3-1.4zm24.2 26.3q-0.9-1.2-2.4-1.2l-0.9 0.1v1.1q-0.2 0.1-0.6 0.3-0.3 0-0.5 0.1h0.3q2.1 0 4.1-0.4zm-4.4 4.3l-1-3.1h-3.3l1 4.3q-1.9 0-1.9 0.5 1.6 1 3.1 1.6 0 0 0.6-2.1 0.2-0.7 1.5-1.2zm-2.1 16.4q-0.4-0.3-0.4-1.7 0-0.6-0.8-0.6-2.2 0-2.2 0.8 1.2 0.6 3.4 1.5zm-9.9-6.5h2.3q-0.5-0.3-0.5-1.6 0-0.6-1.8-0.6zm62.9-105l-0.9 1.6q-2.4-0.7-2.4-1.5 0.6-0.7 2.4-0.7 0.9 0 0.9 0.6zm7.8 45.1l0.6 0.5q-0.6 0.6-1.7 0.6l1.1 2.2h-2.1q-0.2 1.2-0.2-3.3 0-2.2 1.2-2.1zm171.5-37.8q-5.5 0.8-12.1 1.1-4.7 0-12.2-0.2-9.2-0.1-12.1-0.1-6 0-9 0.3 1.8 8.2 1.8 10.3 0 7.2-9.2 11.9l0.8 0.1q0.5 0 1-0.6 0.8-0.7 1.4-0.6l6.3 3.2v24.3h-2.1q0.1 0.9 1.2 1.3 1 0.5 1.9 0.8-0.7 5.2-2.1 15.9l-1.5-0.2q-0.7-0.1-2.1 0.5-1.2 0.6-1.6 0.7-1.5-2.7-5.3-7.3-0.4 0.1-1.1 0.7-0.7 0.5-1.3 0.5l-0.7-0.2-3.2-3.1q-1.8-0.2-2.2 1.5-0.5 1.6-1.5 1.6-0.8 0-2.4-1-1.7-1.1-3.5-1.1-1 0-4.2 1.7-3.1 1.5-3.9 1.5-0.7 0-1.3-3.2l1-3.3q-1.3-9.4-1.3-22.2 0 0 1.3-33.7h3.2q0.1-0.5 0.1-1.2 0-0.3-0.3-2.1-0.1-1.2 0.2-2l-5.3 4.2v1.1q-2.4 0.7-6.2 0.4-6.7-0.4-6.5-0.4-0.8 0-2.7 0.6-1.8 0.4-2.6 0.4l-3.1-1q-7.6 1-20.1 1 1.2-1 1.2-3.7 0-2.7-1.2-7.8-1.2-5.1-1.2-7.7 0-2.2 1.2-3-0.6-2.1-2.1-6.3 3.1 0 9.3-0.4 6.1-0.6 9.1-0.6h20.7q-0.1 0.1-0.9 1.5-0.4 0.7-1.3 0.6 1.5 1.2 3.3 1l1-3.1q3.4-0.2 12.5-0.9 7.8-0.6 12.4-0.6 3.8 0 11.3 0.3 7.5 0.1 11.4 0.1v2.1h0.3q2 0 5.1-0.9 3.7-1 5.1-1.2v2.1h1q-0.1 0.6-0.1-1.6 0-0.5 1.2-0.5 0 1.4 1 3.2l-1 8.4 3.2-1.1v-10.5h3.1l-1.1 4.2q0.8 0 1.7-0.4 0.9-0.6 1.1-0.6h0.4l2.1 2.1 1.5 0.1q5.8 0 5-0.1l1-2.1q-2.1-0.3-6.3-1.1v-2.1h10.5q-0.5 1.1-3.2 4.2-0.1 0-0.3 0.3 0 1.5 3.5 3.9 1 3.8 0.9 10.1-0.1 7.6 0.1 10zm-40.8 89.1q0 0-0.4 5l-2.1 1-0.2 1.8q-0.1 2.3 0.8 6.5 1 4.2 1 6.3 0 2.7-1 2.7-0.3-0.2-0.6-0.3-1.4 4-1.4 6v0.1q0.3-0.3 0.3-0.9l1.4 0.8-1.4 2.4v1q-5.6-0.7-17.4-0.4-11.5 0.3-17.4-0.6-1-5.6-1-7.4 0-7.3 0.4-22.2 0.6-14.8 0.6-22.2 2.7-1.3 5.6-2.8 3-1.5 5.5-1.5 2.7 0 7.7 1.6 4.9 1.5 7.6 1.5 0.6 0 1.1 0.2v1l7.3 5.3 0.2 0.6q0 1.2-2.3 0.4l1.1 5.3h2.1q0.9 2.1 1.6 4.3 0.9 2.1 0.9 4.5zm20.7-100.6q-5.2 0-5.2 0 0 0 1.2 3.1 1.3 3.2 1.5 3.2 1.8-4.2 2.5-6.3zm-21.1-12.8l3.2 1.1q-0.5-0.3-0.5-2.3 0-1-1.2-1l-1.5 0.1zm12.6 17.4q0-1.2-4.1-2.5v2.1q-0.8-0.6-1.2-0.6-0.9 0-0.9 2.5v2.3q2 0 5.3 1v-4.2q0.9-0.1 0.9-0.6zm-15.8-11.1q-0.3-0.1-0.3-1.6 0-0.5-1-0.5-2.7 0-2.7 0.8 1.4 1 4 1.3zm9 9q0-1.5-2.6-1.5-0.8 0-0.8 0.5 0 0.9 3 2.7 0.4-0.8 0.4-1.7zm-16.6-8.4q-0.5-0.7-1.7-0.7-2.3 0-2.3 2.4 0 1 1.6 1 2.4 0 2.4-2.7zm-13.2-2.1q0-0.6-0.2-2.4-0.3-1.3-0.1-2.4h-2.1q-0.8 3.3-3.2 9.6l3.2-1q0.4-1.2 0.9-2.3-0.3 1.8-0.3 2.9 0 0.3 0.1 0.6 0.4 0 0.9-2.1 0.8-2.1 0.8-2.9zm-9.8 3q-1.3-0.9-4.2-1.5 0.2 0 0.3 0.3 0 0.6-2.4 3 0.3-0.1 3.3-0.7 3-0.8 3-1.1zm4.4 8.4q0-0.7-1.2-0.3l1-1 0.2-1.5q0-0.9-0.6-0.9l-0.6 0.3q0.3 0 0.4 0.1-0.3 0.2-2.5 0.9 0 4.2 0 4.2h3.1q0.2 0.6 0.2-1.8zm22.9 24q-1-1-3-1v2.1q3 0 3-1.1zm-34.9-32.7q-0.4-1.2-2.4-1.2-1.2 0-1.2 0.6 0 1.1 2.8 2.7 0.8-1 0.8-2.1zm37.9 47q-1.2-1.4-2.8-1.7v2.1l1.3 0.2q1.5 0 1.5-0.6zm-40-39.9q-0.6-1.1-2-1.1-0.4 0-1 0.3 0.4 0.2 0.4 0.6 0 0.8-1.5 1.5-0.2-1-3.1-3.1l1 4.2h3.2l-1.1 2.1h2.3v-3.2q1.8 0 1.8-1.3zm30.9 31.2q-2.7-0.5-5.6-0.5-5.4 0-5.4 2 0 1.2 2 1.9 1.9 0.6 3.3 0.5h0.5l2-2.1q3.2-1.1 3.2-1.8zm-49.2-41q0-1.6-2.5-1.6-0.8 0-0.8 0.4 0 1.1 2.9 2.7 0.4-0.7 0.4-1.5zm9.6 9.9q-1.6-0.9-4.8-0.9l1 2.1q3.8 0 3.8-1.2zm39.6 92h2.1q-0.5-0.2-0.5-1.5 0-0.6-1.6-0.6zm-7.4 3.3h2.2q-0.5-0.3-0.5-1.7 0-0.6-1.7-0.6zm15.8 10.5q-3.3-0.9-10.5-2.1 0.4 0.2 1 1.8 0.6 1.7 2.9 1.7 2.8 0 6.6-1.4zm-13.4-3.3q-0.7-1.6-3.6-1.9l1.2 3.1 0.9 0.2q1.5 0 1.5-1.4zm-14.6-1q0-1.1-1.9-1.1-1.5 0.2-1.5 0.5 0 0.4 2.9 1.8 0.5-0.5 0.5-1.2zm1.6 3.3l1 2.1q0 0 0-1.8 0-0.3-1-0.3zm136.9-104.3l-0.8 1.4q-2.2-0.8-2.2-1.7 0-0.4 1.5-0.4 1.5 0 1.5 0.7zm57.2 107.9q-3.9-0.3-11.4-2.1v-3q3.4-1.8 7.2-1.8 2.7 0 3.2 2.4 0.5 2.2 1 4.5zm-5.9-83q0 2.7-0.4 5.4h-2.1q0 1.1 1 3.2l-2.1 3q0 0.4 0.6 1.5 0.8 1 0.8 1.6 0 1.7-2.3 2.4-2.6 1.1-3.1 1.8-0.9 1.5-1.7 6.2-0.6 4.5-1.5 6.1h-2.1l-3 5.3q-1.7 0.4-5.2 2.1-1.7 1.3-3.6 4.8-0.4 1-6.6 1-0.6 0-1.2 0.3v2.4q0 2-1.1 2.9h-3q-1.2 0.4-1.6 2.2-0.4 1.7-3.8 1.7-1.1 0-3.6 3.4-2.2 3.5-3.4 3.9h-3.1q-0.8 0.8-1.5 3.2-0.7 2.2-1.5 3.1h-3.2q-1.3 0.5-2.7 3.9-1.4 3.3-3.3 3.6l1.9-2.4q-0.1 0.8-1.2 2.1-0.9-0.6-0.9-3.1l-3.1 2.1q-1.7 0-1.7-0.6 1.7-2.3 3.8-2.4 0.7-2 0.7-2.3 0-1-1.3-1-0.8 0-1.4 0.6-0.4 0.6-0.9 0.6h-0.2v-3.2l-1-0.1q-0.4 0-1.3 0.7-0.9 0.8-2 0.5-0.1-0.5-0.1 3.9 0 0.9 0.1 1.2h2.1q0.3 1.2 0.7 2.5 0.4 1.2 1.5 1.7v1q3.1 1.7 8.2 1.7 3.5 0 10.2-0.9 6.9-0.9 10.2-0.9 4.8 0 7.5 1.2 0.6 0.3 0.9 1.6 0.5 1.4 2.2 1.4l-1-3q2 0.3 5.7 0.6 3.9 0.1 5.7 0.4v2q0.9-0.3 1.4-0.3 0.5 0 0.5 0.6 0 0.7-0.7 2.4-0.8 1.5-0.8 2.4 0 0.7 0.7 1.2 0.3-0.3 0.5-0.3 0.2 0 0.2 0.1 0 1.5-1.8 4.2h-4.2q0.3 0.2 0.4 0.3 0 0.6-1.3 1.4-1.2 0.6-1.7 0.4h-0.4v-2.1h1.1v-0.9q-3.2-1-3.2-1-3.3 0-3.6 1-0.3 1.5-1.7 2-4.8 0.7-9.5 1.5-5.9 1.2-5.9 6.1 0 1.4 1.1 4.8-2.3 1.5-9.8 1.5-5.9 0-17.4-1.2-11.5-1.3-17.3-1.3-2.2 0-6.4 0.6-4.2 0.4-6 0.4 0-0.7-0.6-2.4-0.6-1.8-0.6-2.8 0-1.5 1.1-1.7 1.9-0.3 2-0.3-1-5.2-1-6.9 0-1.2 3.1-11.7h2.2q0-1.9 1-5.2 0.9-1.2 2-1.2 0.1 0 0.5 0 0.5 0.1 0.5 0.1 1 0 1-4.3v-0.8h2.2q0.1-1.8 1-5.2h2.1q2.9-6 4-6.6 3.2-1.7 4.2-2.7 0.5-0.8 1.1-2.1 0.7-1.4 1.1-2h3.1v-2.1h0.4q1.1 0 1.5 2.1h0.5q1.6 0 4.8-2.1 1.7-0.1 5.1 1.2 2.7 0.9 5.2 2v-2.1q-0.6 0.3-0.8 0.3v-0.2q0-0.9 1.9-2.2l-4.2-1.1q0.3 0 0.3 0.3 0 0.8-4.3 1.8-0.2 0.5-0.2-3.3 0-1.2 1.2-2.7 1.8-1.9 2-2.2h1q-0.2 0.6-0.2-3.5l0.2-0.7q0.8-1.1 3.6-2.3 3-1.3 3.6-1.8 5.1-4 8.4-7.3 0.9-0.9 1.9-3.6 1.1-2.7 2.1-3.6 1.2 0 3.2-1.1 2.5-3.4 2.5-9.7 0-2.7-0.7-7.7-0.6-4.9-0.6-7.5l-0.2-0.9h-1l-4.2-7.3q-1.2-0.2-3-0.9l-0.1-0.6q0-2.1 1-0.5-2.2-0.7-2.2-1.5 0-0.3 0.2-1 0.5-0.8 0.5-1.4-0.6-1-2.5-1.3v-2.1q2.8 0 2.8-1.2 0-1.1-1.7-1.1-0.6 0-1.3 1.2-0.6 1.2-2 1.1v-2l-3.4 0.2-1.6-0.2q-0.5 1.4-0.5 3.2 0 3.7 2.4 4-0.6 0.2-1.8 0-1.2-0.3-1.6-0.3-2 0-4 2.6-1.8 2.5-7 2.5-0.5 0-1 0.3v3.2q-0.3 0.9-2.6 1.5-2.2 0.6-2.7 1.6v3q-1.7-1.2-2.4-1.2-0.8 0-0.8 0.5 0 0.3 0.7 1.2 0.5 0.9 0.5 1.6 0 1.1-1.3 4.1-1.7 3.7-1.8 4.2h-2.1q0.2-0.3 0.2 2.4 0 0.4-0.2 0.7-5.8-1.9-14.1-6.9-11.2-6.4-13.8-7.6 0.3-1.4 1.1-4.1h2q0.2-0.4 0-1.2-0.2-0.9-0.2-1.2 0-1 1.5-1.6 1.5-0.8 1.7-1.2 0.3-2.3 2.1-6.2 0.7-0.7 2.6-1.3 2.1-0.8 2.7-1.8 0-1.4 1.1-3h3q0.8-1.7 3.1-4.2 1.2-0.8 3.7-1.2 2.6-0.5 3.5-0.9 4.3-2 8.7-3.9 0.9-0.3 10.2-1.1l1.8-0.1q0.6-2.1 3.6-2.1 1.4 0 14.5 1.5 13.2 1.3 14 1.6 1.7 0.5 3.6 2 1.3 0.9 4.9 0.9l0.8 0.1v2.1q3.1 1.7 6.1 4.2-1 3.6-1 3.2v0.9q0.9 0.1 2.1 0 1.5-0.3 1.9-0.3 3.8 0 7.3 12.3 2.7 10.2 2.7 15.7zm5.8 87.2q-1.3 13.9-1 18.6-9-1.1-27-1.1 2-4.8 4.2-9.3 5.2 1.1 4.3 1.1h0.7l1.1-4.2h0.4q0.5 0 1 0.7 0.4 0.8 0.7 0.8 0.6 0 1.1-0.5l1-6.1q-0.9 0-2.8 0.1-1.9 0.2-2.7 0.2-0.8 0-0.8-0.3 0 0 3.1-3.2l-0.1 0.2-0.2-0.2q0-0.3 2.5-1.6 2.5-1.5 3.1-1.5v2.1q-0.4-0.2 3.7-0.2 0.9 0 1.4 0.2l1 2.1q1.8 0.7 5.3 2.1zm-19.7 5.7q0 0.6-0.7 0.6l-0.3-0.2q-1.3-0.9-1.3-1.8 0-0.3 0.4-0.3 1.9 0 1.9 1.7zm-14.2-2.3q0 1.1-1.4 2.7-0.5-0.9-0.5-1.8 0-1.2 1.6-1.2 0.3 0 0.3 0.3zm3.9 14.1q0 0-20.7 0-0.1-0.9-2.1-3.1l-0.2-1.1q-0.4-3.3 6.8-5.2 4.9-1.1 9.9-2l2.1 3.2q-0.5-0.2 3.3-0.2l0.9 0.2q0 0 0 8.2zm-9.5-135.4q-1-1.1-3-1.1v2.1q3 0 3-1zm-5.2 0.3q-0.5-0.5-1.2-0.5-0.9 0-2.1 1.2-1.2 1.1-1.2 2 0.4 0.4 1 0.4 0.2 0 1.5-0.4v-2q2 0 2-0.7zm-12.3-1.4l8.2-1v-2.1h-1.9v2.1h-0.6q0.6 0-4.7-1.1zm40.4 45.5h3.1q-0.5-0.5-0.4-1.2 0.3-1.5 0.3-1.4 0-0.6-1.1-0.6l-0.8 0.2zm7.2-3q0-0.8-0.5-2.4-0.3-1.7-0.3-2.4 0-1.4 0.8-4.7-0.9-0.4-4.1-1.9 0 0 0 6.1-1.8-0.4-3.9-0.4-2.7 0-7.4 1-5.2 1.4-7.3 1.5-0.6 2.4-2.1 7.2l2.1 1.1q1.2 3.4 1.7 3.4 0.3-4.8-0.6-8.5 1.7-0.6 4-2.1v2.1q5.4-1.4 9-1.4 3.7 0 8.6 1.4zm-52.9-39.5q0-1.2-0.8-3-1.5-0.1-4.2-1 0.4 0.4 0.9 3.3 0.3 2.2 2.8 2.2 1.3 0 1.3-1.5zm24.8 42.8q-0.1-0.5-0.9-0.5-1.5 0-1.5 1.7 0 0.9 0.5 1.6 1.9-0.6 1.9-2.8zm-1.9 32.8v-2.1q-1.7-0.4-6.2-2.1l-1 3.2h-7.2q-1.5-4.8-2.1-7.2l-3.2 1q-0.2 0-0.6-1-0.3-1.2-1.8-1.2l-0.6 0.1q-2.7 1.9-2.7 2.7 0 0.5 4.8 1.4v3.1q1.1 0.6 5.1 2 4.2 1.2 5.1 1.2l3.2-2.1h1q1.7 0 6.2 1zm-18 4.1q-0.9-0.6-3.6-2l-1.1 2 4.1 0.1q0.2 0 0.6-0.1zm3.3 7.3q-1.4-1.6-2.9-2.1l1.1 2.1q0.9 0.3 1.3 0.3 0.5-0.1 0.5-0.3zm21.8 29q-1-1.1-3-1.1v2.1q3 0 3-1zm-41.8-26q0-1-1.8-1-1.5 0.1-1.5 0.4 0 0.9 2.9 1.7 0.4-0.9 0.4-1.1zm16.1 30h2q-0.3-0.1-0.3-1.5 0-0.4-1.7-0.4zm4.7 2.2q-0.1-0.2-0.7-0.2-0.6 0-0.9 0.1v2.1q-2.7 0-2.7 0.9 0.8 0.5 1.6 0.5 0.5 0 1.1-0.4 1.6-2.1 1.6-3zm-16.2-5.8q0-1.7-0.8-4.7h-2.2q0 0 0 4.3l1.1 2.1q0.3 0.1 0.9 0.1 1 0 1-1.8zm-9.7-5.4q0-0.6-3.6-3.3 0.5 0.2 1.2 1.8 0.8 1.6 2.3 1.6 0.1 0 0.1-0.1zm11.2 9.6l-5.5-1.5-1 2 6.1-0.5q0.1 0 0.4 0zm-10.6 3.1l-0.2-0.6q0 0-4 0 0 0.2 0.2 0.2 0.1 0 0.1 0.2h-0.1q-1.1 0-3.4-1.4v-2.1l-3.1-0.9v-3.1h-3q0-2.4 0.1-4.7 0-3 1-4.7h1.9q0-1.3 1.1-3.1h3.1l-1.1-2.1q1.5-1.3 4.2-4-1.7-0.9-5.2-3.2v2.1q0.9-0.6 1.4-0.6 0.3 0 0.3 0.6 0 1.8-3 6.2-2 2.6-3.8 5.2h-2.1q0.3 0.2 0.3 0.6 0 0.8-0.4 2.1-0.3 1.3-0.3 2 0 1.6 1.5 2.5-1.5 0.6-4.2 2.1 2.8-0.1 7.3 1.1 1.7 8.5 7.8 8.5 3.6 0 3.6-2.9zm-18.7-15q-0.2-0.1-0.2-2.5 0-0.7-1-0.7l-1 0.1h0.5q0 0.3-1.2 1-1.2 0.6-1.2 1.1 0 0.6 1.8 0.8 1.2 0.1 2.3 0.2zm3.1 13.4h2.1q-0.4-0.1-0.4-1.5 0-0.6-1.7-0.6zm-9.9 4.6q0-2.2-2.5-2.5v4.2h0.6q1.9 0 1.9-1.7zm151.2-136.3l-1.2 1.5q-1.2-2.1-1.2-3.4 0-0.8 0.9-0.8 1.5 0 1.5 2.7zm65.9 117.9l0.1 7.8q0 3.3-0.4 8.7-0.6 6.9-0.8 8.7-1 0.1-10.8 1.2-6.6 0.8-10.9 0.8-4.4 0-4.8-0.2-1.8-0.4-1.8-3.2 0-0.7-2-0.7l-1 3.2h-11.6q0.2-1.1 1.1-3.2 0.4-0.4 2.4-0.6 1.9-0.2 1.9-1.1 0-0.8-1.2-2.5 4.8-2.1 7.4-3.1v5.2h3.1q-1-6-1-7.8 0-3.1 1-5.9 1.8-1 2-2h-3q-4 1.6-5.3 10.5l-3-0.2q-2.2-0.2-2.2 3.3l-3.2-2.1 1.1-3.1q0.3-0.2 3.3-0.6 2.3-0.3 2.3-1.1 0-0.6-2.5-1.5-2.1 0-2.4 0.6 1.7 0 1.9 0.6-1.3 1.4-3.2 1.4-0.6-0.5-2.6-0.5 0 0 0 1.5 0 0.5-1 0.6 1.3 3.5 3.1 10.5-4.2 0.6-6.3 0.6-2.7 0-7.3-3.7 0.7-3.5 2.1-6.3h-4.3l-0.1-0.4q0-0.4 0.6-1 0.6-0.6 0.6-1.2v-0.6l-3.1-3.2q0.1 0.5 0.1-4.3l-0.1-0.9h-3.2q1.1 13.2 1.1 11.6-0.8 0.3-1.5 0.4-0.2 0.1-0.6 1.6h2.1q0.6 2.1 2.1 6.4-2.9-0.4-4.2-2.1l-2.1 3.1q-3.9 1.2-10.8 1.2-2 0-17.6-1.2v-2.1h3.2q0.7-1.3 1.6-4.2 0.9-2.8 1.5-4.2h-2.1q-0.7 1.4-2.1 4.2-1.4 2.9-2.1 4.2-3.9-0.9-3.9-1.5 0-0.2 0.8-0.6h-3.2l-0.1-5.8 0.1-13.1q6.9-0.8 18.9-1.2 13.4-0.5 18.9-0.9v-4.2h-2.1q0.9 2.7 0.9 3 0 0.3-0.1 0.5-0.5 0-0.6-0.4-0.2-0.2-0.8-1.5-0.6-1.3-0.6-2.1l0.2-0.5 2.1-2.1v-1.1q0.1-1.9-1.3-5.7-1.7-4.9-1.9-5.9l2.6 0.2 2.7-0.2-4.2-3.1v-12.6q2.1-0.7 2.1-2.1l-2.1-2.1q-0.3-0.9-0.3-2.7 0-1.2 0.1-3.3 0.2-2.3 0.2-3.3 1-0.3 5.2 0v-3.1q-1.8-0.6-5.2 0v-1.1q0-24.4 1-25.2l-1-2.1q-0.5-0.3-0.5-0.8 0-0.8 1.5-2.3l-1-3.2q1.2-0.7 3.1-1l-3.1-1.1q0.1-2.1 0.1-6.4l-0.1-3q-13.4-1.7-19.2-1.7-4.5 0-8.1 0.6v-0.3q0-0.3 0.7-0.9 0.8-0.7 0.8-1.3 0-0.5-1.7-1.5-1.5-1.2-1.5-1.5 0.3 0 0.3-1.1 0-0.6-0.7-2.8 0.9-1 0.9-1-0.2-0.1-0.8-0.1h-2.2v2.1h-1.1l1.1 7.4-0.8-0.2q-0.6 0-3.4 1.2 0.3-1.2-0.5-3.1-0.6-2.1-0.6-2.9 0-3.3 0.9-9.3 1.1-6.1 1.2-8.8 1.4 0 3.9-0.2 2.7-0.1 3.9-0.1 2.6 0 3.6 0.4 1.1 0.5 2 2-0.5 0.4-1.9 0l-1 2.1q1.5 1.9 4.2 6.3-0.9-0.3-1.3-0.3-0.6 0-0.6 0.3 0 0.7 1.9 2.1 2.3-0.6 2.3-2.4 0-1.7-1.2-3.6-2-3.2-2.1-3.5 0-1.6 0.6-1.6 0.2 0.1 0.4 0.6v-1.1q4.7-0.6 10.5-0.6 5.3 0 9.5 0.6 0 2.7-3.2 2.1v3.1q0.8 0 0.9 0.5 0.1 0.3 0.1 0.9-0.1 0.9-0.1 1.1l0.1 0.7q4.5-0.9 5-0.9 0.3 0 2.4 7.2h2.1l2.1-3.1q-1.3-1.1-4.2-3.2l1.1-2.1v-6.3q11-0.3 16.8-0.3 6.9 0 10.5 0.3 0 6.9 0.4 20.9 0.6 13.8 0.6 20.7 0 6-3.1 6-0.9 0-2.7-0.2-1.8-0.1-2.6-0.1l-1-3.2q0.3 0.2-2.4 0.2-0.5 0-0.8-0.2v-4.2l-0.3-0.1q-0.3 0-1.5 0.7-1 0.6-1.8 0.6-1.8 0-3-2.2-1.1-2.4-0.7-4.2h-2.1q0.4 0.1 0.4 0.4 0 0.6-2.5 0.6l-1.1-3.1h-0.6q-1 0-1.5 2.1h-0.5q-0.2 0-1-0.6-0.7-0.6-1.6-0.5v3.2q2.4 0.3 4.8 0.7 3.7 0.8 3.7 2.1-1.5 1.1-1.5 1.8 0 0.5 0.3 0.6h-1q1 1.8 1 2.1 1.1-0.3 3.2-1 2.1-0.8 3.1-1.1 0.2 1.4 1 4.2 1 1.5 7.3 2.7 8.5 1.5 8.5 1.5l-0.1 1.8 0.1 5.6q-4.5-2.3-6.1-2.3-0.9 0-2 1.5-0.9 1.5-1.3 1.8 0.6 0.2 1.9 1.4 1.4 1 2.2 1 1.7-0.7 5.3-1.3 0 1.1 0.2 3.7 0.1 2.6 0.1 3.9 0 1-0.1 3.5-0.2 2.2-0.2 3.4-1.6 0.3-4.9 0.3-2.1 0-7.2-0.9-4.5-0.9-7.1-0.6l-2.8 0.3q2.7 1.8 8.4 5.1l-2.2 3.2q-0.2 0.1 2.6 0.1 1.1 0 1.8-1.8 0.5-1.2 0.9-2.6 3.5 0.4 10.5 1.1-0.3 3.9-1 11.6h-3.2q0.4 0.4 1.4 1.2 0.1-0.3 0.9-0.3l0.9 0.1v4.2q-2.6 0-7.4 1.1l-1 3.1q-1.7 0.2-5.3 1.1 0.9 2.5 3.2 7.3h3.1q-0.7 2.1-1.5 4.2-1.2 2.4-3.1 2.4-1.8 0-5.9-1.3v2.1l9.5 2.1q-1.1 0.7-4.2 2v2.1q1.3-1.3 2.2-1.3 0.5 0 0.5 0.7 0 1.4-1.4 4.1-1.2 2.7-2.4 3.9 0.2-0.3 0.8-0.3 0.3 0 0.3 4.5 0 0 1.3 0-0.3 0 0.8 1.1 5.2-4.5 7.3-8.4-4.2-0.5-4.2-2.3 0-0.3 1.1-0.9 1.6 0 1.6-0.3 0-0.4-1.8-1.5-1.8-1-1.9-1.6 2.1 0.4 6.3 1.3l1-2.1q-0.9 0.5-1.9 0.5-0.9 0-0.9-0.5 0-0.9 0.9-1.9 1-1.1 1.9-1.2h-3.2q-0.4-3.2-1-9.5l3.2-1q0.3-1.4 0-4.2h2.1q0 13 1 24.1 15.6-2.1 33.5-2.1zm-99.8 23.6l-0.9 1.6q-2.4-0.6-2.4-1.4 0.6-0.9 2.3-0.9 1 0 1 0.7zm44.3-122.4v-6q-1.7-0.5-4.3-2.1 0 0 0 6.3 0.5 0.1 2.2 1.5 1.8 1.2 1.9 1.2 0.2-0.3 0.2-0.9zm3 6.6q-1.1-1.8-3-2.1v3.1h1q2 0.5 2-1zm15.9 35.7q-0.9-1.2-3.2-3.2v5.3q0 0 1.5 0 0.6 0 0.6-1.1 0.2 0.5 0.4 0.5 0.2 0 0.4-0.8 0.3-0.7 0.3-0.7zm-51-48.9q0-1.5-2.6-1.5-0.7 0-0.7 0.3 0 1.2 2.8 2.8 0.5-0.7 0.5-1.6zm43.3 46q0-0.6-0.7-1.3l-3.2-1.1q0.2 1.1 1.1 4.2l-0.5-0.1q-0.7 0-0.7 0.4 0 2.6 0.1 1.8l3.2-1-0.2-0.5q0-0.4 0.4-1.2 0.5-0.7 0.5-1.2zm-4.5 8.3l0.2-0.2q0-0.4-1.7-2.1l1 2.1zm-5.7 0.9l0.2-0.7q0-1.5-2.6-1.5-1.3 0-1.5 0.3 0 0 3.9 1.9zm-1.9 1.2q0-0.4-0.5-0.4l-0.7 0.3q-1.7 0.6-1.7 2.1 0.2 0.1 0.6 0.1l1.1-0.3q1.2-1.8 1.2-1.8zm19.3 19.8q-0.1-0.3-0.7-0.3l-0.9 0.2q-1.8 1.3-1.8 2.1 0.1 0.1 0.7 0.1l1.1-0.1q1.6-1.1 1.6-2zm-28.9-18l1 2.1q0 0 0-1.6 0-0.5-1-0.5zm15.7 16.8l1.1 2.1q0 0 0-1.6 0-0.5-1.1-0.5zm-11.8-8.8q-1.2-1.4-2.9-1.7v2.1l1.4 0.2q1.5 0 1.5-0.6zm16 13q-0.4-0.1-0.4-1.2 0.1-1-0.6-1-0.2 0-0.5 0-0.4 0.1-0.6 0.1v2.1q-1 0.5-5.2 0l-0.2 1.7q0 2.1 1.2 1.5-0.1 0-0.4 0.3 0 0.7 3.6 0.7l-1.1-3.1q1.5-0.2 4.2-1.1zm-8.5-8.1q-3.2-1.2-10.4-2.4 0.8 0.8 0.9 2.4 0.2 1.5 0.2 2.9 9.3-1.5 9.3-2.9zm32.5 38.6l3.2 2.1v-2.2q-0.6-0.1-1.4-0.1zm-32.4-26.2q-0.2-0.2-0.2-1.7 0-0.4-1-0.4-2 0.1-2 0.6 0 0.9 3.2 1.5zm31.7 31.3q-0.2-1-1.5-1-2.9 0-2.9 2.8 0.8 1.8 2.7 1.5h0.3q1.4-1.6 1.4-3.3zm2.8 4.8q-0.4-0.6-1.3-0.6-1.2 0-1.2 0.6 0 0.2 1.5 1.7 1-1.1 1-1.7zm-35.5-30.9q-0.2 0-1.4-1.8-1-1.2-3.8-1.3l-1.1 3.1 4.2-2.1-0.1 0.5q0 1.9 2.2 1.6zm30.3 33.6q-0.3-0.1-0.3-1.6 0-0.6-0.7-0.6-2.2 0-2.2 0.6 0 0.9 3.2 1.6zm-27.5-28.2q-0.7-1.3-2.8-2.2-0.7 1.8-0.7 3.4l0.7 1.8q2.8-2.2 2.8-3zm-31.8 19.4h-0.1q-1.2 0-3.5 1.5 0.4 0 0.5 0.1 0 0.9-2.6 0.9l1.1 3.2q4.6-4.7 4.6-5.7zm129.6-125.9l-1.2 1.5q-1.1-2.1-1.1-3.4 0-0.8 0.8-0.8 1.5 0 1.5 2.7zm65.9 117.9l0.1 7.8q0 3.3-0.4 8.7-0.6 6.9-0.8 8.7-1 0.2-10.8 1.2-6.6 0.8-10.9 0.8-4.3 0-4.8-0.2-1.8-0.4-1.8-3.1 0-0.8-2-0.8l-1 3.2h-11.6q0.2-1.1 1.1-3.2 0.4-0.4 2.4-0.6 1.9-0.1 1.9-1 0-0.9-1.1-2.6 4.7-2.1 7.3-3.1v5.2h3.2q-1.1-6-1.1-7.8 0-3.1 1.1-5.8 1.7-1.1 1.9-2.1h-3q-3.9 1.6-5.3 10.5l-3-0.2q-2.2-0.1-2.2 3.3l-3.2-2.1 1.1-3.1q0.3-0.2 3.3-0.6 2.4-0.3 2.4-1.1 0-0.6-2.5-1.5-2.2 0-2.4 0.6 1.6 0 1.9 0.6-1.4 1.4-3.3 1.4-0.6-0.5-2.6-0.5 0 0 0 1.5 0 0.5-1 0.6 1.4 3.5 3.1 10.5-4.1 0.6-6.2 0.6-2.8 0-7.4-3.7 0.7-3.5 2.1-6.3h-4.2l-0.2-0.3q0-0.5 0.7-1.1 0.6-0.6 0.6-1.2v-0.6l-3.2-3.1q0.2 0.4 0.2-4.4l-0.2-0.9h-3.2q1.1 13.2 1.1 11.6-0.7 0.3-1.5 0.4-0.2 0.2-0.6 1.7h2.1q0.6 2.1 2.1 6.3-2.8-0.3-4.2-2.1l-2.1 3.1q-3.9 1.2-10.8 1.2-2 0-17.6-1.2v-2.1h3.2q0.7-1.3 1.7-4.2 0.9-2.8 1.5-4.2h-2.1q-0.8 1.4-2.2 4.2-1.3 2.9-2.1 4.2-3.9-0.9-3.9-1.5 0-0.1 0.8-0.6h-3.1l-0.2-5.8 0.2-13.1q6.8-0.7 18.8-1.2 13.4-0.4 18.9-0.9v-4.2h-2.1q1 2.7 1 3 0 0.3-0.2 0.5-0.4 0-0.6-0.3-0.2-0.3-0.7-1.5-0.6-1.4-0.6-2.1l0.1-0.6 2.1-2.1v-1.1q0.1-1.9-1.2-5.7-1.8-4.9-1.9-5.8l2.5 0.1 2.7-0.1-4.2-3.2v-12.6q2.1-0.7 2.1-2.1l-2.1-2.1q-0.3-0.9-0.3-2.7 0-1.2 0.2-3.3 0.1-2.2 0.1-3.3 1-0.3 5.2 0v-3.1q-1.7-0.6-5.2 0v-1.1q0-24.4 1-25.2l-1-2.1q-0.5-0.3-0.5-0.7 0-0.9 1.5-2.4l-1-3.2q1.2-0.7 3.1-1l-3.1-1.1q0.1-2.1 0.1-6.4l-0.1-3q-13.4-1.7-19.2-1.7-4.5 0-8.1 0.6v-0.3q0-0.3 0.8-0.9 0.7-0.7 0.7-1.3 0-0.5-1.7-1.5-1.5-1.2-1.5-1.5 0.4 0 0.4-1.1 0-0.6-0.8-2.8 0.9-0.9 0.9-0.9-0.1-0.2-0.8-0.2h-2.2v2.1h-1l1 7.4-0.8-0.2q-0.6 0-3.4 1.2 0.3-1.2-0.4-3.1-0.7-2.1-0.7-2.9 0-3.3 0.9-9.3 1.1-6.1 1.3-8.8 1.3 0 3.8-0.2 2.8-0.1 3.9-0.1 2.6 0 3.6 0.4 1.1 0.5 2 2-0.5 0.4-1.8 0l-1 2.1q1.5 1.9 4.1 6.3-0.9-0.3-1.3-0.3-0.6 0-0.6 0.3 0 0.7 1.9 2.1 2.3-0.6 2.3-2.4 0-1.7-1.2-3.6-2-3.2-2.1-3.5 0-1.6 0.6-1.6 0.3 0.1 0.4 0.6v-1.1q4.7-0.6 10.5-0.6 5.3 0 9.5 0.6 0 2.7-3.1 2.1v3.2q0.7 0 0.8 0.4 0.2 0.3 0.2 0.9-0.2 0.9-0.2 1.1l0.2 0.7q4.5-0.9 5-0.9 0.2 0 2.3 7.2h2.2l2.1-3.1q-1.4-1.1-4.3-3.2l1.1-2.1v-6.3q11.1-0.3 16.8-0.3 6.9 0 10.5 0.3 0 6.9 0.4 20.9 0.6 13.8 0.6 20.7 0 6-3.1 6-0.9 0-2.7-0.2-1.8-0.1-2.6-0.1l-1-3.2q0.3 0.2-2.4 0.2-0.4 0-0.8-0.2v-4.2l-0.3-0.1q-0.2 0-1.5 0.7-1 0.6-1.7 0.6-1.9 0-3-2.2-1.1-2.4-0.8-4.2h-2.1q0.4 0.1 0.4 0.4 0 0.6-2.5 0.6l-1-3.1h-0.6q-1.1 0-1.5 2.1h-0.5q-0.3 0-1-0.6-0.8-0.6-1.7-0.5v3.2q2.4 0.3 4.8 0.7 3.7 0.8 3.7 2.1-1.5 1.1-1.5 1.8 0 0.5 0.3 0.6h-1q1 1.8 1 2.1 1.1-0.3 3.2-1 2.1-0.8 3.2-1.1 0.1 1.4 1 4.2 0.9 1.5 7.2 2.7 8.5 1.5 8.5 1.5l-0.1 1.8 0.1 5.6q-4.5-2.3-6.1-2.3-0.9 0-2 1.5-0.9 1.5-1.3 1.8 0.6 0.2 1.9 1.4 1.4 1 2.3 1 1.6-0.7 5.2-1.3 0 1.2 0.2 3.7 0.2 2.6 0.2 3.9 0 1.1-0.2 3.5-0.2 2.2-0.2 3.4-1.6 0.3-4.9 0.3-2.1 0-7.2-0.9-4.5-0.9-7-0.6l-2.9 0.3q2.7 1.8 8.4 5.1l-2.1 3.2q-0.3 0.1 2.6 0.1 1 0 1.7-1.8 0.5-1.2 0.9-2.5 3.5 0.3 10.5 1-0.2 3.9-1 11.6h-3.1q0.4 0.4 1.3 1.2 0.2-0.3 0.9-0.3l0.9 0.1v4.2q-2.6 0-7.4 1.1l-1 3.1q-1.7 0.2-5.2 1.1 0.9 2.5 3.1 7.3h3.1q-0.7 2.1-1.5 4.2-1.2 2.4-3.1 2.4-1.8 0-5.9-1.3v2.1l9.5 2.1q-1.1 0.7-4.2 2.1v2.1q1.4-1.4 2.2-1.4 0.5 0 0.5 0.8 0 1.3-1.3 4-1.3 2.7-2.4 3.9 0.1-0.3 0.7-0.3 0.3 0 0.3 4.5 0 0 1.4 0-0.4 0 0.7 1.1 5.3-4.5 7.4-8.4-4.3-0.5-4.3-2.3 0-0.3 1.1-0.9 1.7 0 1.7-0.3 0-0.4-1.9-1.5-1.7-1-1.9-1.6 2.1 0.4 6.3 1.3l1-2.1q-0.9 0.5-1.9 0.5-0.9 0-0.9-0.5 0-0.9 0.9-1.9 1-1.1 1.9-1.2h-3.1q-0.4-3.2-1-9.5l3.1-1q0.3-1.4 0-4.2h2.1q0 13 1 24.1 15.6-2.1 33.5-2.1zm-99.7 23.6l-0.9 1.6q-2.5-0.6-2.5-1.3 0.6-0.9 2.3-0.9 1.1 0 1.1 0.6zm44.2-122.4v-6q-1.6-0.5-4.2-2.1 0 0 0 6.3 0.5 0.1 2.1 1.5 1.8 1.2 2 1.2 0.1-0.3 0.1-0.9zm3 6.6q-1.1-1.8-3-2.1v3.1h1q2 0.5 2-1zm15.9 35.7q-0.9-1.2-3.1-3.2v5.3q0 0 1.5 0 0.6 0 0.6-1.1 0.1 0.5 0.4 0.5 0.1 0 0.3-0.8 0.3-0.7 0.3-0.7zm-51-48.9q0-1.5-2.5-1.5-0.8 0-0.8 0.3 0 1.2 2.8 2.8 0.5-0.7 0.5-1.6zm43.4 46q0-0.6-0.8-1.3l-3.1-1.1q0.1 1.1 1 4.2l-0.5-0.1q-0.7 0-0.7 0.4 0 2.6 0.2 1.8l3.1-1-0.1-0.5q0-0.4 0.4-1.2 0.5-0.7 0.5-1.2zm-4.5 8.3l0.1-0.2q0-0.4-1.6-2.1l1 2.1zm-5.7 0.9l0.1-0.7q0-1.5-2.5-1.5-1.4 0-1.5 0.3 0 0 3.9 1.9zm-2 1.2q0-0.4-0.4-0.4l-0.8 0.3q-1.6 0.6-1.6 2.1 0.1 0.1 0.6 0.1l1-0.3q1.2-1.8 1.2-1.8zm19.4 19.8q-0.2-0.3-0.8-0.3l-0.9 0.2q-1.8 1.3-1.8 2.1 0.2 0.1 0.8 0.1l1-0.1q1.7-1.1 1.7-2zm-29-18l1.1 2.1q0 0 0-1.6 0-0.5-1.1-0.5zm15.8 16.8l1 2.1q0 0 0-1.6 0-0.5-1-0.5zm-11.9-8.8q-1.2-1.4-2.8-1.7v2.1l1.3 0.2q1.5 0 1.5-0.6zm16.1 13q-0.5-0.1-0.5-1.2 0.2-1-0.6-1-0.1 0-0.4 0-0.5 0.1-0.6 0.1v2.1q-1.1 0.5-5.3 0l-0.1 1.7q0 2.1 1.2 1.5-0.2 0-0.5 0.3 0 0.7 3.6 0.7l-1-3.1q1.5-0.2 4.2-1.1zm-8.6-8.1q-3.1-1.2-10.3-2.4 0.7 0.8 0.9 2.4 0.1 1.5 0.1 2.9 9.3-1.5 9.3-2.9zm32.6 38.6l3.1 2.1v-2.1q-0.6-0.2-1.3-0.2zm-32.4-26.2q-0.3-0.2-0.3-1.7 0-0.4-0.9-0.4-2.1 0.1-2.1 0.6 0 0.9 3.3 1.5zm31.6 31.3q-0.1-1-1.5-1-2.8 0-2.8 2.8 0.8 1.8 2.7 1.5h0.3q1.3-1.6 1.3-3.3zm2.9 4.8q-0.4-0.6-1.4-0.6-1.1 0-1.1 0.6 0 0.2 1.5 1.7 1-1.1 1-1.7zm-35.5-30.9q-0.2 0-1.4-1.8-1-1.2-3.9-1.3l-1.1 3.1 4.3-2.1-0.2 0.5q0 1.9 2.3 1.6zm30.2 33.6q-0.2-0.1-0.2-1.6 0-0.6-0.8-0.6-2.1 0-2.1 0.6 0 0.9 3.1 1.6zm-27.4-28.2q-0.7-1.3-2.8-2.2-0.8 1.8-0.8 3.4l0.8 1.8q2.8-2.2 2.8-3zm-31.8 19.4h-0.1q-1.3 0-3.5 1.5 0.3 0 0.5 0.1 0 0.9-2.6 0.9l1.1 3.2q4.6-4.7 4.6-5.7zm200.2-59.6h1.9q0 8.6-0.7 8.6l-5.4-1.4v-4zm-7.1 3.6q0 0.6-0.9 0.6h-0.3q-1.3-1.4-1.3-2 0-0.3 0.6-0.3 1.9 0 1.9 1.7zm8.1 10.2q0 0.6-0.7 0.6h-0.3q-1.4-1.4-1.4-1.8 0-0.5 0.5-0.5 1.9 0 1.9 1.7zm-8.6-5.6q-0.4 0.3-0.7 0.3-0.4 0-1-0.3-1.1-1.8-1.1-2.7 0-0.6 0.3-0.6l0.8 0.2q1.7 2.1 1.7 3.1zm-61.1-46q-3.3-1.7-3.3-1.7 0.3-0.4 1.6-0.4 1.3 0 1.7 2.1zm71.7 9.1q-12.6 1.1-38 1.1-1-9-1-7.7 0-2.5 1-3.6-4.8-3.3-12.1-6.1l0.9-3.2h0.7q-1.1 0 4.5 1.1l0.9-2q-2.7-0.4-5.8-1.2l1.8 0.2 1-2.1q-2.4-0.3-7.2-1.1 0-2.1-1-5.1-4.1 1.8-4.1 3.3 0.5 0.3 3-0.1 0.2 0.7 3.2 4-0.8 2.9-1.5 2.9-0.3 0-0.6-0.8 0.4 0.9 0.4 2.1 0 1.7-6.1 2.9-3.8 0.6-7.5 1.2-0.1-2.7-0.6-5.3-0.3-2.7-3.6-3v2.1q-0.4 0-1.8 0.6-1.4 0.5-2.1 0.5-0.2 0-0.2-0.8 0-0.3-0.4-0.3-2.1 0-2.3 0.5l4.9 1.5q0.7 3.1 1.9 4.2l-0.4-0.2q-0.8 0-1.7 0.6-0.8 0.6-1.3 0.6l-0.7-0.1-1-2q-2.1-1.5-9.2-2.1 2.9 2.9 3 3.5 0.5 0.9 0 4.8h3.2v-2.1q2.2 1.8 5.1 3l-0.2 3.1 0.2 6.2-2.1 1-0.2 2.3q-0.1 2.7 0.5 7.5 0.7 5.4 0.7 7.6h-2.1q0 0-0.1 0.2 0 1.2 2.2 1.8 0.8 2.2 0.5 10.5-0.5 13.5-0.5 11.5 0 15.5 1.1 23.1l-1.2-0.1q-6.9 0-6 0.1v2h-3.2q-0.9 0.7-0.9 3.1 2.4-0.4 8.1-3.1l0.2 0.9q0 0.4-1.2 3.3 1.5 1.2 2.8 2.2 1.7 1.5 1.7 3.2 0 1.5-1.4 3.7-3.8 1.1-3.8 1.7 0 0.3 0.7 0.4 3 0.5 2.8 2.7l-0.1 2.9q0 1.2 0.4 2.5 1.4 0 2.2 2.1 1.7-0.9 5-3-1.2-2.2-1.8-2.2-0.1 0-0.2 0.1v-3.1q2-0.6 6.1-2-0.6-3-2.1-2.1v-1.9q2.4-2 3-2 0.3 0 0.1 0.9 5.4 0.6 8.3 0.6 12.3 0 16.5-8.5 2.8-5.7 2.8-19.8-6.7-0.3-20.4-0.9 0-8.3-1-15.5 2.7 0 3.7 0.5 1.2 0.4 0.3 0.6 3.2-0.5 3.2-0.5 0-0.3-1-0.6l-1.1-1.9h-2.1q-0.9 0-2-0.3 4.8-0.9 9.2-0.8v-2.1q-4.2 0-5-1h2q-0.6 0-0.6-0.2 0.3-0.1 2.6-0.9 0 0-0.2 0.2 0 1 5.1 1 15 0 23.7-1.2 4 1.8 4 3.2-0.9 1-3 1 3 0.3 3.5 1.7 0.3 1.8 0.6 3.4-2 0.3-4.5 0.9l1.5 0.2q0 0 0 1.3 0 0.6 1 0.6v3.2q-0.7 0.3-0.9 0.7 0 0.2 0.3 0.2 0.4 0 2.6-0.9l1-4.2q0.5-0.2 1.5-0.2 5.4 0 4.7 0.2-1.2 1.2-1.2 2.7 0 3.9 0.1 3.4 1.4 0 3.8-0.4 2.4-0.5 3.4-0.5-0.4 0.2-0.4 1.4 0 0.9 0.4 1.6-0.9 0.2-0.7 1.5 0.3 1.4-0.3 1.7 1.6 22.5 1.6 37 0 9.5-0.6 17.1-4.2-0.9-6.3-0.9-1.6 0-4.6 0.5-3 0.4-4.4 0.4 0.2 0.3 0.2-2.5l-0.2-0.5h-2.1l-1.9-8.2q-5 1.6-5 1.6 0.2 0.3 0.8 0.5-9 8.2-11.3 8.2-0.9 0-2.2-0.6-1.4-0.6-2.1-0.6l-0.8 0.2v1.9q-0.9 0.5-4 2.1l-2.1-2.1v-5.1q4 1.4 6 1.4h-0.2l-0.7-0.3v-5.1q0 0-8.1 4-0.3-0.1-0.9-1-0.5-1.1-1.2-0.9v-2.1q1.8 0 1.8 0.4 0 0.3-0.7 0.6 3.8 0 3.8-1.5-0.8-0.9-2.8-0.6l-1-3q-2.6 0-2.6 0.6 0.1 0.2 0.4 0.3l-2.1 2.1q0.6 3.9 2.1 11.3 0 0-1.6 0-0.2 0-0.3 0.6-0.2 0.4-0.2 0.4h-2.5q-4.4 0-11.6-1.8-8.1-1.9-11.4-2.2v-2.1q1.7-0.3 3.3-0.9-0.3-0.2-1.2-0.2-1 0-3.3 0.8-2 0.6-3.3 0.6l-1.6-0.3-2.1-3h-3q-1-1.5-3.2-4.2h-1.9l-1.1-4.1-4.2-3.1q-1.5-2.9-2.4-7.5-1.6-7.8-1.6-7.8h-2.1q0-2.3-1-7.4-1.1-4.6-1.1-7.2 0-5.4 4.5-5.4 1.9 0 3.7-0.4v-3.2q-2.4-0.4-1.9-2.1-0.5-0.1-1.5-0.1-0.7 0-2.2 0.7-1.4 0.6-2.5 0.5-0.1-2.6-0.4-7.7-0.3-5.1-0.6-7.6 1-0.2 2.5-0.6l-1.5-0.5q1.4-0.7 1.4-1.5 0-0.4-0.3-0.6-2.4-1.2-2.4-10.2 0-2.1 0.1-6.1 0.2-4.2 0.2-6.2l2.1-1q0.1-1.8-0.3-5.1-0.5-3.3-0.5-4.7 0-1.8 0.7-3.9 0.8-2.8 1-3.7h2.1q0.6-1.2 0.6-2.7 0-1.1 2.4-5.6 2.4-4.5 3.1-4.9h3.2q0.7-0.9 1.5-4.2 0.4-2 4.1-2h0.5l3-3.1h2.1q1.7 3.1 3.2 6.4 1.7 3.3 1.9 6.9 0 0 4.1 0l1-2.1q-1-0.7-3.1-1.9-0.5-2.9-2-8.3-3.1-0.6-3.1-1.5 0-3.6 11.4-5.7 8.1-1.5 14.4-1.5 10.5 0 21.1 2.3 12.8 2.7 19.7 7.5 0.8 1.5 3 4 1.5 0.5 4.2 2.1 1.2 1.4 2.2 4.7 1.2 3.3 1.9 4.5 3.4 2.5 4.5 8.5 1.6 9.8 1.6 9.9zm-73.4 71.1q0 0.8-1.3 1.7l-0.2-1.2q0-1.1 0.6-1.1 0.9 0 0.9 0.6zm4.3 5.1q0 0.9-1.5 1.7l-0.2-1.4q0-0.9 0.6-0.9 1.1 0 1.1 0.6zm-0.5 7.8q-4.2-1-5.1-1 0.3-0.2 0.9-1.5 0.4-0.9 2.1-0.6-0.2-0.2-1.1-1.1-0.7-0.9-0.7-1.2 0-0.3 0.7-0.7l3.2 1-1 3q1 0 1 0.3 0 1.8 0 1.8zm33.6-120q-1.1-0.9-5-1.8l1.1 3q3.9-1.5 3.9-1.2zm-3 4.2q-0.9-0.9-3-0.9v2q3 0 3-1.1zm0.4 6.2q0-0.5-5.4-4.1l2 3.2q-2.4 0-2.4 0.7 0 0.8 4.5 0.8 1.3 0 1.3-0.6zm-3.5 2.1q-0.5-1.1-2.5-1.1-1.2 0-1.2 0.6 0 0.5 2.7 2.6 1-1.2 1-2.1zm7.3 9.3h3v-2.1q-6.2 0-6.2 0-0.3 1.6-0.9 5.1h4.1zm-26.7-20.6h3.1v-2.1l-6.1-5.1q-0.1-0.3-0.1 3.5l0.1 0.7q1.9 1.1 3 3zm5.4 3.9q0-1.2-2.3-1.8l1.1 2 0.7 0.1q0.5-0.1 0.5-0.3zm-15.3 3.8q-0.7-1.2-3.3-1.5l1.1 2.1 0.8 0.1q1.4 0 1.4-0.7zm61.2 78.3l5.1 1q-0.2-2.1-4.4-2.1l-0.7 0.2zm-12.4-15.3q-1.1-1.1-3-1.1v2.1q3 0 3-1zm-5.3-5.4q-0.7-0.8-1.8-0.8l-1.1 2.1q2.9-0.7 2.9-1.3zm4.8 9.6q0-1.4-3.5-2.1l1 1.9q1.1 0.6 1.9 0.6 0.6 0 0.6-0.4zm14.8 16.3h4.2l-2-2.1q-2.8 0.6-8.3 2.1 0.6-0.4 0.4-1.2-0.1-0.9 1.2-0.9h0.5q-1.8-0.9-3-1l-1.1 4q2.4 0.6 7.3 2.1l0.8 2.1h0.7q1.6 0 1.6-1.6 0-3-2.3-3.5zm-79-80.5q-1.1 0-3.8 2.7-0.9-1.4-3.1-3.2 0.7 1.7 2.1 5.1l3 1.1q0-2.1 1-5.1 1.2-0.6 0.8-0.6zm53.5 60q-3.4-0.3-10.2-1.1l2 2.1 1.5 0.2q2.5 0 6.7-1.2zm-47.8-42.5q-0.9-1.3-3.5-1.6l1.1 2.1 1.2 0.1q1.2 0 1.2-0.6zm62.7 56q-3.6-0.3-5.7-0.3-1.5 0-3.8 1-2.7 1.2-2.7 2.4l0.6 0.2q0.9 0 1.9-0.5-0.4-0.6-0.4-0.9 0.2-0.4 0.4-0.4 2 0 2 1.8 0 1-2 2.7 1 0 2.8 0.1 1.9 0.2 2.8 0.2 0.4 0 1.2-0.2 0.9-0.1 1.4-0.1v-2.1q-0.6 0.3-0.7 0.3-0.5 0-0.5-1.5l0.1-0.9 1.2 0.1h0.2l-0.2-0.1q-0.8-0.5-0.8-0.6 0-0.2 1-0.5 1.2-0.4 1.2-0.7zm-5.7 10h2.1q-0.5-0.3-0.5-1.5 0-0.6-1.6-0.6zm-69.6-71.7q-0.3-0.1-0.3-1.5 0-0.6-0.8-0.6-2.1 0-2.1 0.6 0 0.8 3.2 1.5zm12.3 20.6h2.1q-0.5-0.3-0.5-1.5 0-0.6-1.6-0.6zm30.8 30.6h1.9q-0.3-0.2-0.3-1.4 0-0.6-1.6-0.6zm26.5 27.8v-3.2h-2q0.5-4 0.5-4.2 0-0.9-0.5-0.9h-1v2.1h-1q0.1 0 0.2-0.1-0.4-0.3-2.4-0.9l1.1 2.1-2.1 0.9q0 5.2 0 5.2 5.5-1 7.2-1zm-62.7-57.3q0-0.9-3.8-2.1l2 2.1q0.3 0 0.7 0 0.6 0.1 0.8 0.1 0.1 0 0.3-0.1zm65.8 71.5h2q-0.3-0.1-0.3-1.5 0-0.4-1.7-0.4zm-7.1-7.4q0-2.5-2.2-2.8v4l0.9 0.2q1.3 0 1.3-1.4zm14.2 12.8q-1.2-1.5-2.6-1.2h-0.4l-1.1 3q4.1 0 4.1-1.8zm-8.1 2.8h2.1q-0.5-0.3-0.5-1.2 0-0.9-1.6-0.9zm-54.3-77.8q-10.5-1.5-9.3-1.5-3.9 0-3.9 2.7 0 1.9 0.9 4.9-0.5 0.3-1.7 0.3-1 0-2.7-0.6-1.6-0.6-1.9-0.6 0 0-0.2 0.2 0 0.1 1.4 2.8-3 0.3-6.2 0l-0.6 0.2q-3.9 1.3-9.6 0.9l2 3 1.2 0.1q2.5 0 4-2.2h1.4q2.4 0 1.6 3.1h0.3q1.8 0 3.5-2.5 1.8-2.7 3.5-2.7 0.7 0 2 0.6 1.5 0.6 2 0.6-1 1.5-3 0.9v1q-0.6 0-0.6 0.6 0 1.1 2.6 1.1 1 0 3.1-0.6l1-3 1.9-0.2q0.5-0.1 2.5 0.2 2.1 0.1 2.2 0.6-0.4 0.3-1.5 0.3 0 0.7 0.6 0.7 0.5 0 1.4-2.7l-2-1v-0.9q0-0.9-1-1.2 0.1-1.1 1-3 1.5-0.6 4.1-2.1zm-23.6 16.3h2.1q-0.4-0.1-0.4-1.3 0-0.6-1.7-0.6zm69.2 67.2q-0.6-0.8-1.8-0.8l-0.8 0.2-1 3.1q3.6-1 3.6-2.5zm-13.8-8.9h1.9q-0.3-0.1-0.3-1.3 0-0.6-1.6-0.6zm1 3.1h2q-0.3-0.1-0.3-1.5 0-0.6-1.7-0.6zm8 5.1q-0.9-1-2.9-1v2.1q2.9 0 2.9-1.1zm-51-61.3q-0.6 0-1.8 0-1.2 0.1-1.8 0.1-2 0-2.3-1-0.1-1.1-0.2-2.3h-8.3q-1.5 2.7-2.4 3.5-1.2 1.2-3.8 1.6v4.1q1-0.2 4.1-1.2 2.5-0.8 4-0.8h0.2q0 2.3 1.9 2.3 0.5 0 1.1-0.3v-4.1q1.7-0.1 4.7-0.9 3.1-0.9 4.6-1zm-1.2 9.4l-7.1-5.4q0.2 0.6 2.2 2l-1.1 4.2h1.5q4.5 0 4.5-0.8zm9.1 8.3q-0.3-0.5-1.3-0.5-2.2 0-2.2 1.2 0.8 0.9 2.8 0.9 0.7-1.2 0.7-1.6zm-29.5-23l4.2 1.1q-1.5-2.1-1.5-3.5 0-0.6 0.4-0.6h-3.1zm24.3 23q0-0.6-2.6-1.4-1.6-0.6-3.2-1 0.7 3 1 7.2 2.8-1.5 2.8-2.6 0 0.2-0.7-0.6l0.6 0.2q1.3 0 1.3-1.2 0.8-0.5 0.8-0.6zm3 13.6q0-0.1-0.6-0.7v0.3l0.1-0.3q0-4.2-1.2-8.1h-3q0.2 0.7-0.3 2.2-0.4 1.4-0.4 2.1 0 2.7 1.5 3.5 2.1 1 2.2 1.3h0.8q0.1 0.2 0.4 0 0.5-0.1 0.5-0.3zm-15-13.9l3.2 1.9v-1.9q-0.7-0.2-1.4-0.2zm2.1 6.2l1.1 1.9q0 0 0-1.6 0-0.3-1.1-0.3zm37.2 37q-0.1-0.1-0.3-0.3l-3.1-4h-1.1l-1.9 2.1-0.5-0.3v0.1q0-0.4 3.5 4.2h0.4q3 0 3-1.8zm-39.3-33q-0.3-0.3-0.3-1.6 0-0.5-0.7-0.5-2.1 0-2.1 0.5 0 0.9 3.1 1.6zm28.8 35.9q-1.1-0.8-1.1-1.2 0-0.6 1.1-0.9l-3.1-1.1-1.1 3.2q0.9-0.5 4.2 0zm-18.4-13.4q-0.3-0.1-0.3-1.6 0-0.5-0.8-0.5-2.2 0-2.2 0.6 0 0.9 3.3 1.5zm9.8 14q0-2.4-2.8-2.7v4l0.9 0.2q1.9 0 1.9-1.5zm-10.3-11.3q0-0.9-1-0.9l-0.7 0.3q-1.6 3-1.6 4.7 0.1 0.6 0.9 0.6 1.1 0 1.7-1.7 0.7-1.8 0.7-3zm2.1-72.3l-1.6 2-1.2 0.1q-0.8 0-0.8-0.4 1.2-1.8 3.2-1.8 0.4 0 0.4 0.1zm-600.7 142.3h2.1q-0.5 4.8-2.1 14.4h-2.6q-0.5 0-10.8-1.2l1.3 3.4q-1.9 0-1.9-0.8 0.2-0.1 0.2-0.8 0-0.3-0.6-0.6-0.2 0.2-0.6 0.2-0.2-0.2-0.2-0.6 0-0.6 0.8-2.9 3-1.1 8.8-3.4v-1.1h2.2l1.1-3.2q-0.3 0.2-3.3 2-1.9 1.4-3.3 1.4-0.9 0-0.9-0.8l0.9-1.5q-1.4 0.3-2.3 0.6-0.3 0.1-0.3 0.3 0.1 0.2 0.4 0.2-2.3 1-2.3 1 0 0.3 1.3 0l1 2.3q-3.2 0.8-9.9 3.2l-0.2 1.1q0 1.2 1.3 0 0 2.1 0 4.4-0.2 3.6-1.1 3.4-3.8-7.8-6.1-7.8-2.6 0-2.6 0 0.3 1.1 2.1 2.3l-1.1 3.2q1.7 0.8 3.6 2.3-0.3 0.2-1.1 0.2-2.6 0-8-3.6 0-3.2 0.5-8.2 0.6-6.9 0.6-8.3v3.4q2.9-0.3 4.4 0l-2.2-4.5h-4.3l-0.3-0.9q0 0 1.3-2.3-1-0.4-3.3-1.2 0-12.1 0-12.1 1.5-0.1 3.3-1 2.5 0 7.7 1.6 5.2 1.7 7.6 1.7 1 0 2.6-1.4 1.9-1.3 5.7-1.3 1.8 0 5.4 0.3 3.5 0.1 5.2 0.1v12.1q0.4 0.5 1.2 0.5h0.1q0.8 0 0.8 1.8h-2.1zm2.1 28.6h-2.4q-1.4 0-1.4-0.4 0-0.4 0.6-0.7l-3.4 1.1-2.1-3.2h4.3q0.9-2.9-0.2-3.7l3.5-3q0.2 1.7 0.6 5 0.5 3.2 0.5 4.9zm78.2 105.7q-1.5 0-2.2-1-0.6-1.3-1.6-1.3h-0.7v2.3q-1.5 0.2-6.5 1.1-4 0.8-6.8 0.8-4.4 0-13.3-0.9-8.9-1-13.4-1h-2.8q-2.9 1.3-5.7 1.3l-1-0.2-1.1-1.1 1.1-3.3h-3.2v2.3h-3.4l-1.1 2.1q-1.5 0.3-2.6 0.3-1.5 0-4.1-1.2-2.6-1.4-4.3-1.2l-1.1 2.1h-35.2l-2.2-3.4q0.9-0.6 1.3-1.8 0.5-1.2 0.9-2.4h9.8l1.3-2.3q-4.5 0.1-13.3 1-6.6-11.9-7.7-38.4 1.2 0 1.2-2.6 0-2.7-1.2-7.3 0.5-0.3 5.5-1.1v-2.3h-4.4q0-8.2 0.1-10.2 0.6-6.5 3.2-9.5 0.3-0.3 0.3-0.6 0-0.9-1.3-0.5-0.8-2.1-0.8-6.7 0-6.6 1.8-15.3 0.3-0.2 2.5-0.8 1.5-0.3 1.5-1.5 0-1.1-4-1.1v3.4h-1v-7.8q1.2 0.4 1.5 1.4 0.6 1.8 0.6 1.9 2.5-1.3 4.8-2.9 2.9-1.5 5.2-1.5 0.7 0 0.9 0.2 0.1 0.1 0.1 0.6-0.1 0.6-0.1 0.9l0.1 0.6 4.5-1.2 2.1 3.3q0.9 0.3 1.5 0.3 1.6 0 1.6-1-0.8-1.4-2-1.4 0.4-0.3 0.9-1.4 0.5-1 1.2-1 0.9 0 1.2 0.1l1.1 4.4q0.6 0.3 1.8 0.2 1.7-0.3 1.9-0.3l0.7 0.1v3.4h3.3q2.3 7.7 2.3 25.3-1.6 0.4-4.9 1-3.4 0.5-5.1 1.1v3.4q-3.2-2.2-6.6-4.3-2.1-2.2-2.1-7.1l-0.2-0.7q-3.9 0-3.9 1.4 0 0.3 0.7 0.7-0.9-0.1-2.1-2.1l-1.1-0.2q-0.4 0-1.4 0.6-0.7 0.6-1.5 0.6h-0.5l-1-2.1h-3.4v2.1q0.5 0.2 1.2 0 1.1-0.3 1.3-0.3-1 0 5.2 2.5-0.8 3-1.7 6.3-0.9 2.4-5.2 2.4-0.5 0-0.8 0.2v2.1q0.8 1.1 0.8 2.3 0 1.2-1.9 2.1 1 1.4 2.2 4.5-0.6-0.3-1.2-0.3 0 0 0.4 0.4 0.3 0.5 0 0.8l-0.3 0.1 1.8 0.2q1.3 0.2 1.3-0.3 0-0.6-0.9-0.9 2.2-0.8 6.7-2.2v-2.3q2-1.9 2-1.9 0-0.4-0.9-0.4-1.3 0-3.4 0.7-2.2 0.6-3.2 0.6 1.5-2.9 1.5-4.6 0-0.8-0.5-0.9l1.1 0.1q0.5 0 1.1-0.4 0.8-0.7 1.1-0.8 0.1-0.6 0.1 1.7 0 0.4-1.2 0.4v2.3q2-0.4 3.4-2.3h0.9q0.7 0 2.6 1.3 2 1 4.1 1 2.1 0 7.2-2.3 3.7-1.5 7.2-3.2 0.4 3.5 1.1 11l2.1 1.1q0.3 1.7 0.3 5.4 0 1.8-0.1 5.5-0.2 3.6-0.2 5.6h-2.1v3.2h2.1q-0.2 1.1-1.5 1.1h-0.6v15.5q5.5 0 16.2-1.1 10.8-1.2 16.2-1.2 7.2 0 11.6 1.2l2.2 2.1q-7.4 5.2-7.4 11.7 0 3.6 1.9 10.4l2.1 1q0-1.2 0-3.9-0.2-2.6-0.2-4 0-4.1 0.2-6.3h2.3l-2.3-2.1h2.3v-2.3h-2.3q1.8-2.2 3.4-2.2 0.9 1.3 2.6 1.3l0.7-0.2v-4.4q0.5 0 2 0.6 1.5 0.6 2.3 0.6l1.2-0.2-0.1-0.7q-0.2-2.3 2-2.8 0.3 0 4.3 0 7.8 0 19.1 1.4 0 0.6-0.2 1.8-0.1 1.3-0.1 1.9l0.3 1.8q-1.7-1.7-1.7-2.7 0-0.5 0.6-0.7-3.4 2.8-3.4 3.4 0.8 1.5 3.4 2.1l-0.3 3 0.3 1.5h-3.4v2.1q-1.9 0.2-3.9 0.2-3.1 0.3-3.1 1.4 0 0.3 0.8 2.6 0.7 2.3 0.7 2.6-0.4-0.5-1.3-0.5-1.1 0-1.1 0.9 0.9 2.3 3.5 3.8 0 0 0-3.5v-0.7h2.3q0.3-1.6 0.8-2.9 0.6-1.4 2.9-1.4 2.1 0 2.7 4.6 0 3 0.2 6.2zm-86.6-100.5q0-1.5-3.7-4.1v5.5q3.7 0 3.7-1.4zm76.3 77.4q-1.3-1.6-2.9-2.3l1.1 2.3q0.9 0.3 1.4 0.3 0.4-0.1 0.4-0.3zm-78.2-73.3q-1.2-1.5-2.9-1.5v2.2l1.4 0.1q1.5 0 1.5-0.8zm0.4 3.9q-0.4-0.2-0.4-1.7 0-0.6-0.7-0.6-2.3 0-2.3 0.7 1.2 0.7 3.4 1.6zm-1.3 3l0.3-0.3q-1.5-0.6-4.6-1.5l-1 3.2q2-0.4 5.3-1.4zm76.2 77.5q-0.4-2.3-4.9-2.3h-0.6v2.3q5.5 0 5.5 0zm-84.7-76.1h2.1q-0.6-0.6-0.5-1.2 0.4-1.4 0.4-1.4 0-0.6-2-0.6zm70.3 76q-0.6-0.6-0.3-1.3 0.3-1.4 0.3-1.4 0-0.9-1-0.6h-1.1l-2.3 2.1q1.5 0.3 4.4 1.2zm-7.6 0h2.1q-0.3-0.1-0.3-1.6 0-0.7-1.8-0.7zm-13.3 0h3.3q-0.6-0.3-0.3-0.7 0.3-0.8 0.3-0.8 0-0.8-4.4-1.8zm-52.8-45.2h3.4q-0.6-0.4-0.3-1.6 0.3-1.4-0.2-1.6-0.3-0.3-0.9-0.3l-0.9 0.2zm57.2 48.3v-2.1q-1.4-0.2-4.3-0.5-2.9-0.3-4.4-0.6v3.2q-3.4 1.7-3.4 2.8l2.2 0.6q-0.2 0-0.3 0.1 0.3 0.2 0.9 0.2l2.6-0.2q2.1-0.1 1.2-0.1 0.6-0.5 5.5-3.4zm-23.1-12.1h3.4q0 0 0-3.2 0-1.4-1.1-1.4-0.8 0-1.2 0.2zm-4.5-2.1q-0.3-0.2-0.3-1.9 0-0.4-0.7-0.4-2.3 0-2.3 0.6 1.1 0.7 3.3 1.7zm-26.4-26.8q-0.2-0.2-0.3-0.2l-1.9-0.6q-0.6-0.1-0.3-0.6 0.6-0.6 0.6-0.8h-0.1q-0.6 0-1.2 0.3-3.1 3.1-3.1 4.2 0.3 0.3 1.1 0.3l0.9-0.2 1.1-2.1q0.7-0.3 3.2-0.3zm39.3 43.3q0-1.1-0.8-2.3l-4.4 0.1-2.1-0.1v-0.9q0 0.1 1.2-3.6-1.1-0.3-2.3-2.1 4.1-1.4 4.1-2.7-0.6-0.7-2.3-0.7l-0.7 0.2-1.1 3.2q-0.6-0.1-2.2-0.6-1.3-0.6-2.3-0.6l-1 0.1q0.3 1.9 0.7 1.9 0.7 0 1.6 0.3-0.9 4.1-2.3 12.1h3.3v-4.3q10.8 1.1 9.4 1.1 1.2 0 1.2-1.1zm-45.7-37.5v-2.1l-1.3-0.4q-0.4 0-0.9 0.8-0.4 0.6-0.9 0.6h-0.3q-1.4-1.4-4.4-3.3 1 2.1 2.2 4.2 1.7 3 3.6 3 0.4 0 0.6-1.4 0.3-1.6 1.4-1.4zm20.1 28.3q-1.5-1.5-3.8-1.8v2.1l2.3 0.2q1.5 0.1 1.5-0.5zm11.7 9.2l-2.2-3.4q0.5 0.5 1 0.5l0.1-0.2q0-1.4 0-1.4-8.9-2.6-18.7-3.3l2.2 3.3q1.1 0.4 2.6 0.2 2.3-0.3 2.6-0.3 2 0 4.1 2.4 2.2 2.3 4.1 2.3 4.6 0 4.2-0.1zm-23.9-9.8q-0.8-1.7-3.7-2.3l1.1 3.2q0.5 0.2 1.2 0.2 1.4 0 1.4-1.1zm6.6 5.3q-1.2-1-5.4-1.6-2.9-0.3-5.9-0.7v3.4q7.8 0 10.4-0.6 0.9 0 0.9-0.5zm-15.3-11.4q0-3.5-2-4-2-0.6-4-1.1l1.2-4.4q-0.4-0.3-1.5-0.3-0.4 0-2.6 0.3-1.5 0.1-2.6 0 0.6 0.6 4.1 3.7 3.7 2.9 3.7 3 0.2 0 0.6 2.9 0.2 1.9 1.9 1.9 1.2 0 1.2-2zm-0.5 5.9l0.6 0.2q0 0.3-3.8-3.5h-0.7q-3.7 0-3.7 0 0.6 0.3 0.7 1.3 0.2 1.1 0.4 2 2.1 0.3 6.5 0zm220.3-77.1q-0.1 0.2-0.6 0.2-0.1 0-0.6-0.2-0.3-0.1-0.5-0.1-2.1-2.8-2.1-3.4 0-0.3 0.3-0.3 0.9 0 2.1 1.5 1.4 1.4 1.4 2.3zm-72.2-40.8l-0.9 1.5q-2.3-0.8-2.3-1.7 0-0.6 1.7-0.6 1.7 0 1.5 0.8zm96.2 103.1l0.2 1.2q0 1.2-1.2 1.2-1.6 0-3.1-1.5-1.5-1.7-1.5-3.2 0-2.1 2.3-3.2-0.2-0.3-0.2 2.4l0.2 1zm-6.6-12.3q0 1.4-0.6 4-0.6 2.6-0.6 3.8-0.6 0-2-0.1-1.2-0.2-1.9-0.2-0.3 0-0.9 0.2-0.6 0.1-0.7 0.1-0.2 0.8 0.6 1.1 0.7 0.3 1.5 0v2.3h-3.4q0 0.6 0.2 1.5 0 0.9 0 1.4 0 0.3-0.2 0.4-0.7 0-2.9-2.2-2-2.3-2.6-3.4l-4.4-1.1-2.3 3.4q-0.5-0.9-1.2-0.9l-1.1-0.2v-3.4h-2.1v3.4l-3.4 2.2-1.1-3.4q-2-0.6-5.6-2.2 0.4 0.2 0.4 0.7 0 0.4-2.7 0.4 1.5 1.5 4.6 4.5h-0.7q-0.6 0-3.9-1.1 0.1-0.6 0.1 1.7 0 0.6-1.2 0.6 0-2.5-2.5-2.5l-0.9 0.2-4.4 3.3q-5.5 1.3-17.3 1.3-15 0-24-1.3-3.4 6.2-3.8 14.9-0.3 7.6-0.7 15.3-4.4 0-13.4 0.4-9 0.5-13.6 0.5-6.8 0-13.2-0.9-0.1 0.4-0.1-4.6l0.1-0.9 3.4-3.4q-0.2 0.5-0.2-3.7 0-1.2 2-6.2 2.3-5.8 2.6-6.9h2.3q1.1-2.9 2.1-9.5 1.1-6.6 2.3-9.5l4.5-11.2 2.3-1q-0.2 0.6-0.2-3.7l0.2-0.8q3 1.3 3 2.3 0 0.6-0.9 0.9h2.3q-1.5 3.9-2.3 6.8l-1.7-0.2q-1.3 0-1.3 0.6 1.6 2.2 4.2 2.9-0.3 0-0.3-0.4 0-0.6 1.4-2.9 0.8 0.4 2.2 1.2l1.2 2.1h3.3v5.7q-2.1 0-4.5 1.1-1.4-0.2-1.7 0.6-0.2 0.8-0.5 1.7 3.5-1.6 6.3-1.7 2.9-0.3 5.9-0.6-0.1-0.6-0.4-1.2 0.3 0.1-0.8 0.1h-0.9q0-3.5-1.2-7.8l-5.5-1.2-0.2-0.3q0-0.3 0.6-1.2 0.6-1 0.6-1.9 0-2.1-3.3-6.6v-0.6q0-0.9 0.6-2.1 0.6-1.2 0.6-1.5l-0.1-0.4-4.5 1.3q0.3-2.3 0.6-4.8 0.6-3.5 1.9-3.5 0.6 0 1.5 0.9 1.1 0.8 1.1 1.4 0 0.3-0.6 0.3h3.3v-3.4q-1.2-0.6-2-0.6-0.9 0.9-2.4 0.6 0.7-3.6 1.4-7.1 0.6-1 6.4-1.7v-2.3q-1.9-0.2-5.5-1.1 1-4.4 2-8.7 1-4.9 1-9 0-0.4 0.3-1.3l2.2-1q-0.2 0.7-0.2-6.2 0 0 1.4-5h2.1q-0.9-0.3-0.9-2.5 0-2.3 0.8-5.5 1.1-4.9 1.2-5.5 6.4 0.2 19.1 2.3-0.6 1.9-1.2 5.5 2.8-2.1 5.5-2.9 2.8-0.7 5.7-1.5 0.1-1.1 0.1-6.4 0-1.7 2.6-3.1 2-0.8 4-1.7-0.4-0.4-1.2-3.5-0.6-2.4-2.1-2.4-1.9 0-3.4 1.5v-2.3h-3.4q0.3 0.8 1.2 2.6 1.1 1.7 1.1 2.1 0 2-1.5 2h-0.8q0.3-1.2-1.2-1.2l-0.9 0.2q0.1 0.3 1.1 1.5 1 1.2 1 2 0 0.4-0.9 0.7-0.8 0.3-0.8 1 0 0.6 0.7 1.8 0.7 1.1 0.7 1.5 0 0.9-1.8 0.3v1.1h-0.5q-1.8 0-4.4-1.2-2-1.1-4.1-2.2v-2.1q-1-0.5-11.2-3.4 0.3-4.6 2.3-13.4l2.3-1.1h34.6l-1.1 6.7q2-4.9 7.3-4.9 3.1 0 3.7 1.7 0.6 2.8 1.2 3.2 0.6 0.5 2.2 0.5 1.6 0 2.3 0.6 0.6 0.5 1.6 5.3 1.3 4.9 1.7 5.9 1.4 2.6 2.3 5.6l2.2 1.1v4.4h1q3.6 12.9 3.6 19.2 0 1.9-1.3 3.2l1.1 5.6h-3.4v3.2h-1v2.3q0.6-0.3 1.2-0.3 1.1 0 1.1 4.8h-4.5q-0.1 1.8-1.2 4.4h3.4l2.3-4.4h3.3q0.3-0.6 0.3-1.1 0-0.6-1.5-1.1l2.3-3.3q-1.5-0.6-3.2-2 1.5-0.5 2.6-0.3h1.7q-0.2-0.3-0.3 0.1 0 0 0.9 0l1.7-0.1q2.1 6.6 5.5 14.5 0 0-6.6 0l7.8 2.3v1.1q0 2.7 1.8 6.2 2.3 4.6 2.6 6 0.2 2.6 1.1 7.8h2.3q0 0 1.4 5.1 0.9 2.9 0.9 5zm16.7 44.7q0 0-9.1 0-0.1-0.3-0.1-0.9 0-1.4 3.5-1.4 0-2.5-1.8-2.5-1.9 0-3.4 2.2-1.5 2.1-2.6 2.6-3.1 1.1-8.3 1.1-3.3 0-9.1-1-6.6-1-9.4-1.2-4.4-14.4-5.5-22.3 1.2-0.3 3.4-1.5 2.1-1.4 3.2-1.9-1.5-0.8-1.5-1.2 0-1.4 2.7-2.2 1.4 0 1.4 1.3 0 1.2-1.4 3.2l2.8-0.2q0.9 0 1.7 0.2l1 2.3q1.6 0 2.6-1.5 1.1-1.6 1.9-1.9 3.6-1.2 9.6-1.2 1.7 0 4.8 0.1 3 0 4.5 0 2.6 6.8 3.4 11.2h2.3q1.1 2.9 1.8 8.3 1 6.1 1.6 8.4zm-42.4-29.2l-0.2 2.4-1.8 0.2q-2.1 0.1-2.1-1 1.8-2.6 3.3-2.6 0.8 0 0.8 1zm-5.7-94.7l-1-2.3q-4.6 0-4.6 0l2.3 3.3h0.7q0.6 0 1.2-0.6 0.8-0.7 1.4-0.4zm-17.1-8.3q0-1.4-2.9-5.2h-3.4q0.8 1.7 1.4 3.4 1.2 2.4 4.1 2.4 0.8 0 0.8-0.6zm18.8 24.9q-1.8-1-5-1l1 2.3q4-1.1 4-1.3zm-39.6-36.8v-4.5q-1.1-0.3-1.1-1.5l-0.1-0.6q-5.6 0-5.6 0-0.3 0.1-0.3 0.7 0 1.1 1.4 2.5-0.6 0.2-1.5 0.5-0.9 0.3-0.9 0.6 2.7 0.7 8.1 2.3zm-1.7 8.4q-0.3-0.8-1.7-0.8l-1.1 0.2q-0.9 1.2-0.9 1.8 0.5 0.6 1.4 0.6 2.3 0 2.3-1.8zm51.6 54.6q0-0.6-1.3-0.6-2.4 0-2.9 1.2-0.9 2.2-1 2.3l-2.3-1.1v1.1q-1.1 1.1-1.1 1.7 0 0.6 1.1 0.6 1.2 0 3.5-0.6 2.3-0.6 3.2-0.6-0.6 0-0.6-0.6 0-0.6 0.6-1.6 0.8-1 0.8-1.8zm-15.3 0.6l2.3-2.1-3.9-0.2-2 0.2q0 0.9 3.6 2.1zm-37.8-29.8q-0.8-0.8-1.3-0.8-0.7 0-1.2 0.5 0.2 2.7-1.4 4.4-1.5 1.5-1.5 1.8 0.8 1.6 2.9 2.8 0 0 0-6.7 2.5-0.5 2.5-2zm48.9 65.6l1.1-2.3q-0.8-0.3-2.1 0-1.9 0.3-2.2 0.3-0.6 0-1.2-0.3l-1.1-3.2h-3.3l-2.3-2.3q2.3-0.8 6.7-2.3-0.6-1.4-1.4-1.5-2-0.6-2-0.6 1.9-3.5 4.5-7.8v-2.3q-2.2-0.8-3.3-0.9 0.4 0 0.5-0.5 0.6-0.8-0.6-3.1h-0.9q-1.7-0.4-1.7 0.5 0 0.3 0.5 0.6l-2.3 2.3q0.1-0.3 0.7-0.3 0.6 0 0.6 0.6l-0.3 0.8q-1.8 1.2-5.5 3.3 0 1.3 1.4 1.3l0.8-0.2 1.2-2.1q0.8 1.8 2.1 5.5-3.2 1.4-4.6 1.4l0.2-0.4-4.4-3.2q-1.1-2.4-1.1-12.1 0-1.9-1.5-5.3-1.6-3.4-1.9-4.9-0.1-5.4-1.2-15.8l3.4 2.3 2.3-4.4q-0.8 0-2.2 1.2-1.4 1.1-2 1.1l-0.3-0.2v-0.1q0.2-2-2.3-2 0 0 0 1.7 0 0.4-1 0.4-0.5-1.9-4-10.5-2.6-6.3-2.6-11l-0.2-0.8-4.4-2.1q-1.5 5.6-3.1 11.3-1.5 6.3-1.5 11.8 0 2.6-1.1 4.7l-3.3 2.3q0.1 5.4 0.1 13.5l-0.1 2.1-2.2 2.3q-0.3 1.1-2.3 10.7-1.5 6.6-3.3 10.4 1.9-0.1 7.3-1.4 4.6-0.9 7.3-0.9 2.8 0 9.2 0.8 5.8 0.8 9 0.6l3-0.2 2.3-1q2.7 1.4 2.7 2-0.1 0.1-0.6 0.1-0.9 8.9-6.3 8.9-2.4 0-5.9-1.1 0.1 1.9-1.1 4.6 1.5 0.3 4.4 1.1 1.2 2.4 3.4 2.3-1.1-1.4-1.1-2.5 0.6-1 2.5-1-0.8 0 4.1 1.2v2.3h0.6q2.5 0 3.1-1.9 0-0.4-0.3-0.4h2.3v-3.4h0.1q0.6 0 1.4 0.8 0.9 0.6 1.7 0.6 0.6 0 1.2-0.3-2 1.4-2 1.5 0 0.5 6.4 3.1v-3.4q-3.9-0.8-3.9-1.7 1.3-0.9 3.9-0.6zm-67-56.9l3.4 1.1q-0.5-0.3-0.5-2.6 0-1-1.4-1l-1.5 0.2zm-0.4-1.4q0-1.7-4-4.3l-0.2 1.9q-0.3 3 3.2 3 1 0 1-0.6zm59.6 66.1h2.3q-0.4-0.3-0.4-1.5 0-0.6-1.9-0.6zm-63.6-59.2q-0.3-0.2-0.3-1.7 0-0.6-1.1-0.6-2.9 0-2.9 0.9 1.8 1.1 4.3 1.4zm78.8 78q-1.1-1.7-2.9-5.4h-3.4q-0.3 1.6-1.1 4.6-0.6 2.9-1 4.3 0.7 0.3 1 3.1v1.4q3.7-2.2 3.7-3.7-0.3-0.8-1.4-0.8 2.6-1.7 5.1-3.5zm-57.6-56.8v-2.3q-1.2-0.1-3.3-1v-1.1q-4.3-1.4-13.3-1.4-2.3 0-3.6 0.2l2.3 4.6q0 0-5.6 0l-1.1-1.3q-1.7 0-1.7 0.7l4 2.7-1.2 3.4h2.3v-2.2q3.2-1.2 6.3-2.3 3.8-1.3 6.7-1.3 2.1 0 8.2 1.3zm19 36.9h2.2q-0.3-0.1-0.3-1.7 0-0.6-1.9-0.6zm-23.5-11.2q-0.2 0-1.9-1.2-1.7-1.2-3.8-1.2-0.3 0-1.1 0-0.6 0.1-1 0.1-1.9 2.7-1.9 3.9 0.3 0.7 1.4 0.7 1.1 0 1.2-1 0.3-1.3 0.5-2.3 1.5 0 6.6 1zm-8.9 13.4h2.3q-0.5-0.2-0.5-1.6 0-0.6-1.8-0.6zm-17.9 0h2.3q-0.5-0.1-0.5-1.5 0-0.6-1.8-0.6zm12.5 12.8q-1.2-0.7-2.4-0.4 0 0 0-1.7l-1.1-0.6 2.1-2.2q0.2 0.5 0.5 0.8 0 0-1.5-5.4h-3.4v0.5q0 0.9-0.6 2.6-0.6 1.5-0.5 2.4v0.2l3.4 4.4h1.5q0.3 0.2 1.1 0 0.9-0.1 0.9-0.6zm-7.3-5.5q0-1.2-4.1-4-1 0.5-2 2.5-0.7 1.1-4.6 0.9-1.6 2.6-1.6 3.4 0 0.3 0.3 0.3 0.4 0 4.6-2.5 1 0.3 1 3.9l0.1 1.6q1.7-0.1 4.4-1h-0.3q-1 0-1-1.7 0-0.8 0.3-1.7l2.1-1.1q0.8-0.3 0.8-0.6zm80.8 9.2q0 1.4-2.2 1.4-0.1 0.6-0.1-1.9 0-0.4 0.6-0.4 1.7 0 1.7 0.9zm158.7-92q0 1-1.5 1.7l-0.2-1.2q0-1.2 0.6-1.2 1.1 0 1.1 0.7zm5.7 79.1q0 4.2-0.9 5.4-1 1.1-2.8 1.5-1.7 0.5-2.4 1.4 0.4 1.2 0.4 2.3 0 0.6-0.4 2-2.9 0.3-3.3 1.1 0-0.2 0 2.9 0 0.9-1.3 1.2-1.9 0.1-2 0.3-0.8 0.5-1.2 2.1-0.3 1.7-1 2.2-1.9 1.8-6.7 2.6-3.7 0.3-7.3 0.6-0.3-0.8-1-4.9-0.6-4.1-0.4-4.3l0.1 0.2 0.2 0.4v-2.1h-2.1q-0.5 0.9-3.4 3.2 0.7 1.7 3.4 4.3h1q0.2 0.4 0.2 1.2 0 0.2-0.3 2.1-0.2 1.4 0.1 2.2-23.1 4.7-31.3 4.4l-3.4-0.1 1.1-5.4q0.7-0.6 5.3 0v-4.4l-3.5 0.1-2.9-0.1q0 0 2.3-1.1 1.8-1.1 1.8-1.2 0 0-0.4 0l-0.5 0.1v-2.1q2.8 0.8 2.8 1.5 0 0.5-0.7 0.6 0 0 4.5 0l1.1 2.2q1.8 0.7 5.3 2.1h3.2v-2.1q-0.3 0.3-0.7 0.3h-0.2q0-0.5 2-2.5-0.6 0.2-2.3 1-1.5 0.6-2.5 0.6-1.8 0-3-0.6 0.3-0.3 1.1-0.5l2.4-0.5-1.1-2.1q-0.6-0.2-3-1.4-1.7-0.9-3.1-0.9l-0.4 0.2q0.1 2.1-3.3 2.1v-2.1h-2.6q-6.1 0-6.1 0 0.6-1.6 3.4-4.5-0.3-0.1-0.3-0.6 0-1.2 1.4-2.6-1.3-0.1-4.5-1.1 8.6 0 11.3 0.5 0.5 0 1 0.1 0 0-4.6 0.5l-2.2 5.4 5.4 1.2v-3.4q1.2-0.4 3.4-2.1 1.5 0.9 2.1 1.7 0.1 0.4 0 0.4 0.5 0 1.7 0.6 1.2 0.5 2 0.5 1.8 0 1.8-0.5 0-1.5-5.5-3.8v-2.1q6.7-2.6 7.6-3.2 2.5-1.6 5.4-6.6 1.5 0.6 1.5 1.3 0 0.5-0.4 0.8 2.7 0.6 3.9 0.6 1.3 0 1.4-0.4-1.5-1.6-3.2-3.1-1.5-1.7-1.5-4.1 0-1.4 0.3-5.2 0.3-3.1 0.1-5.1 4 0.2 12 1.1v-3.4q-1.1 0-3.4 0.5-2.1 0.3-3.4 0.3-2.4 0-4.1-0.8l-1.1-2.1q-1.8-0.9-1.8-3.1 0.3-0.6 1.8-0.1 1-0.8 1-1.9 0-0.9-0.5-2.4-0.5-1.5-0.5-2.3 1.3 0.1 4.3 0.8 1.3 0.3 4.5 3.6 3.8-0.7 3.8-1.7-0.2-0.3-0.6-0.4-1.6-0.9-2.9-2.9-0.3-0.3-4.9-0.3-2 0-2-3.4-1.9-0.8-5.4-2.1v-1.1l-1-0.3q-0.3 0 0 0.5 0.4 0.4 0.4 0.6 0 0.1-1.2 0.6-1.2 0.4-1.2 1 0 0.8 2.3 1.7 1.3 0.6 2.9 1.3-3.2 0.4-6.5 0.4-4.2 0-21.7-2.6v-3.2h-3.3v4.3q-6.6 2.4-19.5 1.1l1.1 4.4q5.3-2.3 6.7-2.3l0.9 0.1q0 0.2-1.3 1.1-1.4 0.8-1.4 1.2 0 0.5 0.4 1h2.2v26h-2.2q1.6 1.5 1.9 1.5 0.3 0 0.3-0.5-0.8 2.6-2.2 5.6h2.2q0 0 0 4.2l2.3 1.1q0.1 0.6-0.3 2.3-0.3 1.5-0.3 2.1 0 2.3 3.5 3.9 3.5 1.5 3.5 5.3v0.5l3.2 2.1q-0.7 1.6-1.5 1.6-0.5 0-0.6-0.5 0.6 0.3 0.4 1.2-0.1 0.9 1.1 0.9l0.6 0.2q0.3 1.1 1.2 3.2-10 1.4-23.2 1.4-4.3 0-12.9-0.2-8.5-0.1-12.8-0.1 0.3-3.1 0.3-9.2 0-7.7-0.8-23.1-0.6-15.5-0.6-23.1 0 0 1.7 0 0.5 0 0.5-1.1 0 0-4.3-2.1 2.1-1.2 4.3-2.2-0.5-1.2-3.3-3.2 1.3-3.3 3.3-9.8 2.6 0.8 11.9 2.2-0.8 0.3-0.3 0.7 0.6 0.6 0.6 0.6l-1.4-0.3q0 2.3 2.5 2.3l0.9-0.1-1.1-4.3q2.2-0.6 6.4-2.1v-1.1q-0.7 0-2.4-0.6-1.5-0.8-2.5-0.8-1.8 0-3.6 1.8-1.9 1.7-3.8 1.7h-0.7q-4.6-3-5.2-3.2-0.1 0-4.7 0l-0.9-0.1q1.7-0.7 1.7-2.8 0-0.6-0.7-1.8-0.4-1.4-0.7-1.4-0.2 0-0.3 0.6 0.1-1.5 1-4.3l-1-3.3q0 0.4 0.4 0.4 0.6 0 1.7-1.5h-2.1q0-3.1-0.6-9.2-0.5-6.1-0.5-9.2 0-2.6 0.6-7.6 0.6-5.2 0.6-7.7 0-1.4-0.1-2.1-1.6-1.1-1.6-1.5 0-0.5 0.5-0.7h7.7q-2-0.7-4-1.5-2-0.8-2.6-2.7l-1.1-1.1q1.4 0.3 1.7 1.4 0.3 0.9 1.4 0.9 2.6 0 2.3-0.2v-2.1q-1-0.3-1-2.6l-0.1-0.8-3.2 1.1 0.1 1.1-0.1 0.1q-1.6 0-1.1-0.1v-3.1q0-13.2 0-13.2 3.4 0 11.6 0.8 7.4 0.8 11.7 0.5l2.7-0.2q2.2-2.1 5.5-2.1l-2.3 2.1q3.4-0.3 9.8-1.1l1.1 4.3 0.6 0.2q1.8 0 4-1.9 1.1-1 0.9-1.5v-2.1q0.8-0.3 2.1-0.3 1.6 0 4 0.6 2.6 0.6 3.7 0.7 11.5 0.7 23.1 1.1 15.1 1.7 20.2 7.7 6.7 2.9 7.3 3.3 2.2 2.2 2.2 8.4 0 0.7 0.3 1.3 3-0.2 3.8 1.7 1.1 3 1.7 3.6 0-0.1-0.2-0.3-0.1 0.2-0.1 0.5 0 0.9 0.4 2.9 0.5 2 0.5 3 0 1.1-2.8 7.1l-4.4-0.3-2.1 0.3 2.1 3.2q2.6 0.3 7.7 1.1-0.2 0.4-1.1 6.7-0.8 4.1-2.2 6.3-0.4 0.6-1.6 0.7-1.3 0-1.7 0.3-1.2 0.8-2.6 4.2-1.1 2.6-3.2 2.6-0.8 0-1.7-0.2l-1.2 2.2q-3.4 2-12 3.2 4 0.7 8 1.7 5.2 1.2 7.3 2.6 0.5 1.3 2.2 3.3 1.5 0.9 2.7 0.9 0.5 0 1.1-0.1 0.6-0.3 0.8-0.3 0.7 0 1.9 4.9 1-0.3 1.6-0.3 0.9 0 0.9 1 0 2.5-2.5 3.7 1.1 0 1.1 0.5-0.1 1.7-0.1 1l0.1 0.7h0.6q1.1 0 1.6-1 0.6-0.9 1-1.2-0.1-0.3-0.1 2.3 0 0.6 0.1 0.9l3.2 1.1q1.7 13.6 1.1 21.7 0-0.1 0.2-0.3 0.1 0.6 0.3 1.4 0.3 3.1 0.3 4.7zm-71.3 14.9q-0.9-0.5-4.3 0-0.2 0.9-0.2-2.3 0-1.1 2-1.1 2 0 2 0.9 0 0.2-0.1 0.6 0 0.5 0 0.8 0 0.6 0.6 1.1zm3.8 4q0 0.7-1.7 1.3v-1.2q0-1.1 0.6-1.1 1.1 0 1.1 1zm53.1-119.7q0-0.4-2.8-0.9-2.7-0.5-3-0.6l2.1 3.2h0.3q0.6 0 2-0.5 1.4-0.6 1.4-1.2zm-7 1.7l0.3-1.2q0-1.7-1.4-0.9 0 0 0-4.5h-2.2q-3.6 4.8-3.6 5.7 0.7 1.4 5 1.1zm-6.7-5.2l-0.8-1.4q-1-0.6-3.5-0.6-2.9 0-4.1-0.5l-2.2-3.2q-2.1-0.8-5.9-0.8-4.6-0.1-6-0.3l4.3 5.4q0.8 0.3 2.1 0.1 2-0.3 2.2-0.3 0.7 0 1.2 0.2v2.1q-0.8-0.3-1.5 0h-1.7q0.9 0.3 2.6 1.2 1.8 0.8 2.7 1.1l2.2-4.4h0.4q1.9 0 2.2 1.8 0.3 1.7 1.5 1.7 0.2 0 1.8-0.3 1.1-0.2 1.7 0.1 0.8-1 0.8-1.9zm7.5 29q-1.5-1.8-2.9-2.1l1.1 2.1q0.9 0.3 1.3 0.3 0.5 0 0.5-0.3zm0.1-6.3q-0.9-0.6-1.8-0.3h-1.2l-1.1 2.3q0 0-6.4 0 0.3 0.2 0.6 1.3 0.3 0.9 1.7 0.9 1.4 0 4.7-1.6 3.5-1.5 3.5-2.6zm-14.2-0.1q0-1.4-4-2.3l2.2 2.1q0.9 0.3 1.5 0.3 0.2 0 0.3-0.1zm12.1 25.4q-1.4-2.3-3.1-2.8v3.4l1.7 0.2q1.4 0 1.4-0.8zm-7.3-3.7q-0.3-0.4-1.1-1.2v-3.2q-2 0-5.5-1.1 0.9 0.9 2.3 3.2 1.4 2.2 2.1 3.2 2.2-1 2.2-0.9zm-12 0.9q0-0.4-0.4-1.8-0.3-1.4-0.3-2.1l0.7-1.4h-3.3l1.2 3.2q-0.9 0.5-0.9 0.8 0 0.7 3 1.3zm34.9 33.7q0-0.9-3.5-2.1l-2.2 2.1 4.6 0.2q0.2 0.1 0.6 0.1 0.5-0.1 0.5-0.3zm-32.7-54.2l-3.2-1.2q-1.9-1.7-3.3-7.6-1.2-5.1-5.6-7.2-6.6-3.2-23.4-3.2-3.2 0-11.2 1.8 0.8 2.1 2.1 2.1 1.6 4.2 1.6 15.8 0 4.3-0.3 11.8-0.2 7.3-0.2 9.3 3.4 0.3 4.9 0.3 3.1 0 8.9-1.2 6-1.2 9-1.2 0.8 0 1.2 0.6 0.6 0.6 1.3 0.6 1 0 6.8-3.8 3.6-2.5 7.1-4.9 0.3-0.8 0.3-6.8 0-3.2 1.5-3.8 2.2-0.9 2.5-1.4zm30.1 49.1q-1.4-1.5-3.1-1.3l-1 2.1q-6.9-1.1-6.5-1.1-3.6 0-3.6 1.9 0 0.1 0.1 0.6 0.2 0.5 0.2 0.8 1.7-0.2 4.4 0.1 2.9 0.2 4.2 0.2 0.4 0 1.2-0.2 0.7-0.1 1-0.1v-2.2h1.4q1.7 0.6 1.7-0.8zm3.5 19.2l3.2 2.1v-2.1q-0.4-0.2-1.5-0.2zm-2-5.3q-4.6-1.3-6.7-2.2l2.1 3.2q-1.3 0-2.6 0.8 0 0.3 0.9 0.3 1.9 0 2.8-1.1 3.5-1.2 3.5-1zm-81.8-79.4q0-1-3.1-1 1.4-1.6 1.4-2.7 0-0.6-0.8-0.6-3 0-2.7 0.1 0.6 0.2 0.6 0.5 0 0.6-2.8 0.6l1.1 2.1q4 1 6.3 1zm32.9 41.7h-0.2q0-0.3-1.1-0.3l1.1 2.2q0.2 0.6 0.2-1.9zm22.8 23.9h-0.2q0-0.3-1.1-0.3l1.1 2.1q0.2 0.6 0.2-1.8zm-64.2-65.5q-0.1-0.1-1-3.7-0.6-2.4-4.6-1.9l-3.1 0.3-3.2 3.2q2.3-0.6 3.2-2.2h0.3q1.4 0 4.3 1.7 2 1.4 4.1 2.6zm7.1 10.4q-0.6-0.7-2-0.7l-0.8 0.1q-1.8 1.8-1.8 2.9 0.3 0.5 1.1 0.5 1 0 2.3-0.8 1.2-0.9 1.2-2zm55.8 36.3q-0.6-1.1-0.9-0.9-1.5 0.3-1.2 0.3-0.6 0-1.1-0.5v-4.3l-3.2-1v6.4q-1.4-0.3-2.3-1.2-0.8-1.1-1.8-1.1-0.6 0-1.2 0.7-0.5 0.8-1.3 0.5v3.2h-0.3q-1.5 0.2-4.3-1.5-2.7-1.7-4.1-1.7-1.5 0-2 1.1-0.4 1-1.2 1l0.1-5.8-0.1-2.9h-2.1q-0.4 0.9-1.1 6.6l-2.2-2.1 1.1 4.2-3.2 3.3q-1.1 0.1-1.2-0.5 0.1 0.6 0.1-1.2l-0.1-0.5q-2.5-0.1-7.5-1.1v-1h-0.8q-0.6 0-1.5 0.6-0.9 0.6-2.2 0.4v1.1q2.9 0.6 8.8 2.2v3.3q0.6 0.2 1.6 0.2 1.1 0 3.1-0.6 2-0.8 2.9-0.6l1.1 3.2h2.1q0.5-1.1 0-5.5 4.6 0.3 6.8 0.3 2.2 0 6.2-0.3-0.1 0.6-0.1-1.7 0-0.5 0.7-0.5 1.1 0 2.6 1.7 1.6 1.7 2.9 1.7h0.5l-1.1-2.3 2.2-1.1q0.6 2.2 2.1 6.6h2.2q0-0.9-0.5-2.9-0.5-2-0.5-3.1 0-2.3 2-2.7zm-65.8-36.9q0-0.9-3.6-2.1v2.1l2.7 0.2q0.9 0 0.9-0.2zm86.2 88.3q0-0.2-1.4-2-1.4-1.8-1.4-5.1 0-0.6-0.1-0.9-5.5 0-5.5 0l-1.1 2.2 6.6 4.3q0.1 0.4 0 1.3-0.3 1-0.3 1.3 0 0.1 0.3 0.7 2.9-1.4 2.9-1.8zm-87.7-85.7q-0.1-0.6-1.2-0.6-2.6 0-2.6 1.4 0.8 0.9 2.7 0.9 1.1-1.1 1.1-1.7zm11.8 14.4q0-0.3-2.5-1.5-2.4-1.3-2.7-1.4 0.8 0.3 0.9 1.8 0.2 1.4 0.2 2.6 4.1-1.1 4.1-1.5zm6.3 6.3q0-1.7-8.3-3.7l1.1 3.2q0.7 0 2.3 0.6 1.5 0.5 2.1 0.5 2.8 0 2.8-0.6zm-22.7-24.2q-1.4-1.5-4-1.2v2.1q0 0-5.9 0h-1.7q0.6 0.9 1.2 1.8 1.1 1.6 3.5 1.6 1.6 0 4.2-1.4 2.6-1.5 2.7-2.9zm82.8 96.4v-2.2h-3.2q-0.5-0.7-0.5-2.7 0-2-0.6-2.8l-3.2-1q1.7 5.2 3.2 8.7 2.2-0.3 4.3 0zm-83.8-77.7l5.8 1.8q-0.5-2.3-3.6-2.3-2.2 0-2.2 0.5zm21.8 22.4q-0.4-1.2-2-1.2 1 0-4.4 1.1l3.4 2.3q3-0.5 3-2.2zm49.9 64q-1.2-2.1-3.1-2.1v3.2h1.3q1.8 0.4 1.8-1.1zm-54.3-53.9l-5.2-2.6 1.1 3.3q4.1 0 4.1-0.7zm0.1 2.8q-1-1.1-3.2-1.1v2.3q3.2 0 3.2-1.2zm44.6 51.1h2.3q-0.5-0.3-0.5-1.5 0-0.6-1.8-0.6zm4.3 1.5q-0.5-0.6-1.4-0.6-1.2 0-1.2 0.6 0 0.6 1.6 1.7 1-1.4 1-1.7zm-53.9-52.2q-1.1-0.4-3.5-0.4h-1.1v1.2q0.2 0 2.3-0.3 2.3-0.3 2.3-0.5zm13.8 9.3l-1.1-4.2q-5.2 0.1-10.3 0.1-5.2 0-10.4-0.1l-1 3.2q1.8 1 5.5 3.2-2.2 0.9-2.2 1.7 0.3 0.6 1.7 0.6h0.5q0.4-1.9 2.1-2.3-0.6 0.6-0.6 0.8 0 0.4 1.5 0.4h0.2q3.2-4.9 3.2-5.6v-1q5.5 0 5.5 0v2.2h0.8q-0.8 0 4.6 1zm-19.8-8.8q-0.4-0.3-2-0.9-0.7-0.4-0.3-0.8 0.6-0.6 0.6-0.6h-0.1q-1.2 0-3.2 1.7-2 1.6-2 2.7 0.3 0.5 1.5 0.5l1.4-0.2v-2.1q1.1-0.2 3.1-0.2 0.6 0 1-0.1zm18.7 17.6l-3.2-1.1-0.2 0.8q0 0.6 0.5 1.3 0.6 0.8 0.8 1.1h-0.2q-1.7 0-1.7 2.2 0 1.6 2.9 2.2 0.2-2.2 1.1-6.5zm33.5 42.3q-0.9-1-3.1-1v2.1q3.1 0 3.1-1.1zm-43.1-43.7l-1.3-1.8q-0.3-0.2-1.2-0.2-4.6 0-4.1 0.2l4.3 3.2h0.4q1.9 0.3 1.9-1.4zm-13.8-7.7q-0.9-2.3-3.7-2.9 1.1 0.5 1.1 4.3 0.6 0.3 0.9 0.3 1.7 0 1.7-1.7zm18 17.8q-0.6-0.3-0.6-2.3 0-1.1-2.1-1.1-1.1 0-2.9 0.5-2.3 0.6-3.1 0.7v2.2q4.5-0.3 8.7 0zm-14.3-12.7q-0.3-0.8-1.4-0.8-3.5 0-3.5 3.8 0 1.4 1.2 1.4 0.3 0 1.7-0.4 2-2.3 2-4zm18.6 23.6q0 0 0-3.1 0-1.5-0.9-1.5-0.8 0-1.2 0.1l-2.2 3.4h1.1q-0.1 0.1-0.4 0.3 0 0.3 1.8 0.6 1.8 0.2 1.8 0.2zm2.2 3.2l-3.2-1.1v3.2l-0.7-0.1q-0.6 0-0.6 1.6l0.2 1.7h3.2q-0.5-0.1-0.5-1.1 0-1.2 1.6-4.2zm-31.6-21.6q-1.5-2.2-3.2-2.3v3.2l1.3 0.2q1.9 0 1.9-1.1zm1.3 6.4h2.1q-0.4-0.3-0.4-1.7 0-0.6-1.7-0.6zm29.7 25.1q-0.7-0.6-1.6-1.2v-2.2h-2.1q0.3 0 0.4 0.2 0 0.3-1.2 0.6-0.6 0.2-1.4 0.3v3.2l5.4 2.2q-0.8-3.1 0.5-3.1zm5.2 8.6h0.9q-0.5-1.9-1.1-5.5h-2.1q-0.6 0.6-0.8 2-0.3 2-0.5 2.3-1 0.3-3.2 1.2v2.1q1.6-0.4 2.2-2.1 0 0 4.6 0zm-11.1-13.2h-0.6q-1 0-0.7-0.4 0.6-1.1 0.6-1.1 0-0.6-0.9-0.6-0.5 0-1.7 0.1-1.2 0.2-1.4 0.2-1.4 0-1.4-1.7 0-0.5 0.5-1.4 0.4-0.9 0.4-1.5-0.3-0.3-0.9-0.3-3.3 0-6.3 3.7-0.6 0.7-3.9 6.4 8.5-1.8 8.5-3.7l-2-0.7v-2.2q5.7 3.4 8.9 3.4 0.6 0 0.9-0.2zm-24 3.4q-0.9-1.1-3.2-1.1v2.2q3.2 0 3.2-1.1zm373.2-131.9l-1.2 1.5q-1.2-2.1-1.2-3.5 0-0.8 0.9-0.8 1.5 0 1.5 2.8zm67.2 120.3l0.2 7.9q0 3.4-0.5 8.9-0.6 7-0.8 8.9-1 0.1-11 1.2-6.7 0.8-11.2 0.8-4.4 0-4.9-0.2-1.8-0.5-1.8-3.2 0-0.8-2-0.8l-1 3.2h-11.8q0.1-1 1-3.2 0.5-0.4 2.5-0.6 2-0.1 2-1.1 0-0.9-1.2-2.6 4.9-2.1 7.5-3.2v5.4h3.2q-1.1-6.1-1.1-8 0-3.2 1.1-5.9 1.8-1.1 2-2.2h-3.1q-4 1.7-5.4 10.7l-3-0.1q-2.3-0.2-2.3 3.3l-3.2-2.1 1-3.2q0.3-0.2 3.4-0.6 2.5-0.3 2.5-1.1 0-0.6-2.6-1.5-2.2 0-2.5 0.6 1.7 0 2 0.6-1.4 1.4-3.4 1.4-0.6-0.5-2.6-0.5 0 0 0 1.5 0 0.5-1 0.7 1.3 3.5 3.2 10.7-4.3 0.6-6.5 0.6-2.7 0-7.5-3.8 0.8-3.6 2.2-6.5h-4.3l-0.1-0.3q0-0.4 0.6-1.1 0.6-0.6 0.6-1.2v-0.6l-3.2-3.2q0.1 0.5 0.1-4.4l-0.1-1h-3.2q1 13.5 1 11.8-0.7 0.3-1.5 0.5-0.2 0.1-0.6 1.7h2.1q0.6 2.1 2.2 6.4-2.9-0.3-4.3-2.1l-2.2 3.2q-3.9 1.2-11 1.2-2 0-17.9-1.2v-2.2h3.2q0.8-1.4 1.7-4.3 0.9-2.9 1.5-4.2h-2.1q-0.8 1.3-2.1 4.2-1.4 2.9-2.2 4.3-4-0.9-4-1.5 0-0.2 0.8-0.6h-3.2l-0.2-6 0.2-13.3q7-0.8 19.3-1.2 13.6-0.5 19.3-0.9v-4.3h-2.2q0.9 2.7 0.9 3 0 0.3-0.1 0.5-0.5 0-0.6-0.3-0.2-0.3-0.8-1.5-0.6-1.4-0.6-2.2l0.1-0.6 2.2-2.1v-1.1q0.1-2-1.2-5.8-1.9-5.1-2-6l2.6 0.2 2.7-0.2-4.3-3.2v-12.9q2.2-0.7 2.2-2.1l-2.2-2.1q-0.3-1-0.3-2.8 0-1.2 0.2-3.4 0.1-2.3 0.1-3.3 1.1-0.3 5.4 0v-3.2q-1.8-0.6-5.4 0v-1.1q0-24.9 1.1-25.7l-1.1-2.2q-0.4-0.3-0.4-0.7 0-0.9 1.5-2.5l-1.1-3.2q1.3-0.7 3.3-1l-3.3-1.1q0.2-2.2 0.2-6.6l-0.2-3.1q-13.6-1.6-19.5-1.6-4.6 0-8.3 0.6v-0.3q0-0.3 0.8-1 0.7-0.7 0.7-1.3 0-0.5-1.7-1.6-1.5-1.2-1.5-1.5 0.3 0 0.3-1.1 0-0.6-0.8-2.9 1-0.9 1-0.9-0.2-0.1-0.8-0.1h-2.3v2.1h-1.1l1.1 7.5-0.8-0.2q-0.6 0-3.5 1.3 0.3-1.3-0.4-3.2-0.6-2.2-0.6-3 0-3.3 0.9-9.4 1-6.3 1.2-9.1 1.4 0 4-0.1 2.7-0.2 4-0.2 2.6 0 3.6 0.5 1.1 0.4 2 2-0.4 0.4-1.8 0l-1.1 2.1q1.5 2 4.3 6.4-0.9-0.3-1.4-0.3-0.6 0-0.6 0.3 0 0.8 2 2.2 2.3-0.6 2.3-2.5 0-1.6-1.2-3.6-2-3.2-2.2-3.6 0-1.6 0.6-1.6 0.3 0.1 0.5 0.6v-1.1q4.7-0.6 10.7-0.6 5.4 0 9.6 0.6 0 2.8-3.2 2.1v3.3q0.8 0 0.9 0.4 0.2 0.3 0.2 0.9-0.2 1-0.2 1.1l0.2 0.8q4.6-0.9 5-0.9 0.4 0 2.5 7.3h2.1l2.2-3.2q-1.4-1.1-4.3-3.2l1.1-2.2v-6.4q11.3-0.3 17.1-0.3 7 0 10.7 0.3 0 7 0.5 21.3 0.6 14.1 0.6 21.1 0 6.1-3.2 6.1-1 0-2.8-0.1-1.8-0.2-2.6-0.2l-1.1-3.2q0.3 0.1-2.4 0.1-0.5 0-0.8-0.1v-4.3l-0.3-0.1q-0.3 0-1.5 0.7-1.1 0.6-1.8 0.6-1.9 0-3.1-2.3-1.1-2.4-0.8-4.2h-2.1q0.4 0.1 0.4 0.4 0 0.6-2.6 0.6l-1-3.2h-0.6q-1.1 0-1.6 2.2h-0.4q-0.3 0-1.1-0.7-0.8-0.6-1.7-0.4v3.2q2.5 0.3 4.9 0.8 3.8 0.7 3.8 2.1-1.5 1.1-1.5 1.8 0 0.5 0.3 0.6h-1.1q1.1 1.9 1.1 2.2 1.1-0.3 3.2-1.1 2.2-0.7 3.2-1.1 0.2 1.4 1.1 4.3 0.9 1.6 7.4 2.8 8.7 1.5 8.7 1.5l-0.2 1.9 0.2 5.6q-4.6-2.3-6.3-2.3-0.9 0-2 1.5-0.9 1.6-1.4 1.9 0.7 0.1 2 1.4 1.4 1 2.3 1 1.7-0.7 5.4-1.3 0 1.2 0.1 3.8 0.2 2.6 0.2 4 0 1-0.2 3.5-0.1 2.3-0.1 3.5-1.7 0.3-5.1 0.3-2.1 0-7.3-0.9-4.6-0.9-7.2-0.6l-2.9 0.3q2.7 1.8 8.6 5.2l-2.2 3.2q-0.3 0.1 2.6 0.1 1.1 0 1.9-1.8 0.4-1.2 0.9-2.6 3.5 0.3 10.7 1.1-0.3 4-1.1 11.8h-3.2q0.5 0.4 1.4 1.2 0.1-0.3 0.9-0.3l0.9 0.1v4.3q-2.6 0-7.5 1.1l-1.1 3.2q-1.6 0.2-5.3 1.1 0.9 2.6 3.2 7.5h3.2q-0.8 2.1-1.5 4.3-1.2 2.4-3.2 2.4-1.9 0-6-1.4v2.2l9.6 2.1q-1 0.8-4.2 2.1v2.2q1.3-1.4 2.3-1.4 0.4 0 0.4 0.8 0 1.4-1.4 4.1-1.2 2.8-2.4 4 0.1-0.3 0.8-0.3 0.3 0 0.3 4.6 0 0 1.3 0-0.3 0 0.8 1 5.4-4.5 7.5-8.5-4.3-0.5-4.3-2.3 0-0.3 1.1-0.9 1.7 0 1.7-0.3 0-0.5-1.9-1.6-1.8-1-2-1.7 2.2 0.5 6.5 1.4l1-2.1q-0.9 0.4-2 0.4-0.9 0-0.9-0.4 0-0.9 0.9-2 1.1-1.1 2-1.2h-3.2q-0.4-3.2-1-9.7l3.2-1q0.3-1.4 0-4.3h2.1q0 13.3 1.1 24.6 15.9-2.1 34.1-2.1zm-101.7 24l-1 1.7q-2.4-0.6-2.4-1.4 0.6-0.9 2.3-0.9 1.1 0 1.1 0.6zm45.1-124.9v-6.1q-1.7-0.4-4.3-2.1 0 0 0 6.4 0.5 0.2 2.1 1.5 1.9 1.3 2 1.3 0.2-0.4 0.2-1zm3 6.8q-1-1.9-3-2.2v3.2h1.1q1.9 0.5 1.9-1zm16.3 36.4q-1-1.2-3.2-3.2v5.3q0 0 1.5 0 0.6 0 0.6-1 0.1 0.4 0.5 0.4 0.1 0 0.3-0.8 0.3-0.7 0.3-0.7zm-52.1-49.9q0-1.5-2.6-1.5-0.7 0-0.7 0.3 0 1.2 2.9 2.9 0.4-0.8 0.4-1.7zm44.3 47q0-0.6-0.8-1.4l-3.2-1.1q0.1 1.1 1.1 4.3l-0.5-0.1q-0.8 0-0.8 0.4 0 2.6 0.2 1.9l3.2-1.1-0.2-0.5q0-0.4 0.5-1.2 0.5-0.8 0.5-1.2zm-4.6 8.4l0.1-0.2q0-0.4-1.7-2.1l1.1 2.1zm-5.8 1l0.2-0.8q0-1.5-2.6-1.5-1.4 0-1.6 0.3 0 0 4 2zm-2 1.2q0-0.5-0.4-0.5l-0.8 0.3q-1.7 0.6-1.7 2.2 0.2 0.1 0.6 0.1l1.1-0.3q1.2-1.8 1.2-1.8zm19.7 20.2q-0.1-0.3-0.7-0.3l-0.9 0.1q-1.9 1.4-1.9 2.2 0.2 0.1 0.8 0.1l1.1-0.1q1.6-1.1 1.6-2zm-29.5-18.4l1.1 2.2q0 0 0-1.7 0-0.5-1.1-0.5zm16.1 17.1l1.1 2.2q0 0 0-1.7 0-0.5-1.1-0.5zm-12.1-9q-1.2-1.4-2.9-1.7v2.2l1.4 0.1q1.5 0 1.5-0.6zm16.4 13.3q-0.5-0.1-0.5-1.2 0.2-1.1-0.6-1.1-0.2 0-0.5 0-0.4 0.2-0.6 0.2v2.1q-1 0.5-5.3 0l-0.2 1.7q0 2.2 1.2 1.5-0.1 0-0.4 0.4 0 0.7 3.7 0.7l-1.1-3.2q1.5-0.1 4.3-1.1zm-8.8-8.2q-3.2-1.3-10.5-2.5 0.8 0.8 0.9 2.5 0.2 1.5 0.2 2.9 9.4-1.6 9.4-2.9zm33.2 39.3l3.3 2.1v-2.1q-0.6-0.2-1.4-0.2zm-33.1-26.7q-0.3-0.2-0.3-1.7 0-0.5-0.9-0.5-2.1 0.2-2.1 0.6 0 1 3.3 1.6zm32.3 31.9q-0.1-1-1.5-1-2.9 0-2.9 2.9 0.7 1.8 2.7 1.5h0.3q1.4-1.7 1.4-3.4zm2.9 4.9q-0.4-0.6-1.3-0.6-1.3 0-1.3 0.6 0 0.2 1.6 1.7 1-1.1 1-1.7zm-36.2-31.5q-0.2 0-1.4-1.8-1.1-1.2-4-1.4l-1.1 3.2 4.3-2.1-0.1 0.4q0 2 2.3 1.7zm30.9 34.3q-0.3-0.2-0.3-1.7 0-0.6-0.8-0.6-2.1 0-2.1 0.6 0 0.9 3.2 1.7zm-28-28.8q-0.8-1.3-2.9-2.3-0.8 1.9-0.8 3.6l0.8 1.8q2.9-2.3 2.9-3.1zm-32.5 19.8h-0.1q-1.2 0-3.5 1.5 0.3 0 0.4 0.1 0 1-2.6 1l1.1 3.2q4.7-4.8 4.7-5.8z"/>
</svg>